<mxfile host="app.diagrams.net" modified="2024-04-06T22:05:17.544Z" agent="Mozilla/5.0 (Windows NT 10.0; Win64; x64) AppleWebKit/537.36 (KHTML, like Gecko) Chrome/123.0.0.0 Safari/537.36" etag="dlCFN2zvgHEYFvELKu4q" version="24.0.6" type="device" pages="2">
  <diagram name="E/R Diagram" id="OQEjHUkl1IwofG7Pg3NK">
    <mxGraphModel dx="1167" dy="1083" grid="0" gridSize="10" guides="1" tooltips="1" connect="1" arrows="1" fold="1" page="0" pageScale="1" pageWidth="827" pageHeight="1169" math="0" shadow="0">
      <root>
        <mxCell id="0" />
        <mxCell id="1" parent="0" />
        <mxCell id="DgBOl0pBe3Ew6FHPL2E4-2" value="APP_USER" style="whiteSpace=wrap;html=1;align=center;" vertex="1" parent="1">
          <mxGeometry x="256" y="-260" width="100" height="40" as="geometry" />
        </mxCell>
        <mxCell id="DgBOl0pBe3Ew6FHPL2E4-3" value="AUDIT_LOG" style="whiteSpace=wrap;html=1;align=center;" vertex="1" parent="1">
          <mxGeometry x="496" y="-260" width="100" height="40" as="geometry" />
        </mxCell>
        <mxCell id="DgBOl0pBe3Ew6FHPL2E4-4" value="TRACK" style="whiteSpace=wrap;html=1;align=center;" vertex="1" parent="1">
          <mxGeometry x="68" y="239" width="100" height="40" as="geometry" />
        </mxCell>
        <mxCell id="DgBOl0pBe3Ew6FHPL2E4-6" value="" style="triangle;whiteSpace=wrap;html=1;rotation=-90;" vertex="1" parent="1">
          <mxGeometry x="316.75" y="230" width="42.5" height="49" as="geometry" />
        </mxCell>
        <mxCell id="DgBOl0pBe3Ew6FHPL2E4-7" value="IsA" style="text;html=1;align=center;verticalAlign=middle;whiteSpace=wrap;rounded=0;fontSize=16;" vertex="1" parent="1">
          <mxGeometry x="308" y="247" width="60" height="30" as="geometry" />
        </mxCell>
        <mxCell id="DgBOl0pBe3Ew6FHPL2E4-8" value="ARTIST" style="whiteSpace=wrap;html=1;align=center;" vertex="1" parent="1">
          <mxGeometry x="71" y="-50" width="100" height="40" as="geometry" />
        </mxCell>
        <mxCell id="DgBOl0pBe3Ew6FHPL2E4-11" value="" style="endArrow=none;html=1;rounded=0;fontSize=12;startSize=8;endSize=8;curved=1;exitX=0.5;exitY=1;exitDx=0;exitDy=0;entryX=0.5;entryY=0;entryDx=0;entryDy=0;" edge="1" parent="1" source="DgBOl0pBe3Ew6FHPL2E4-8" target="DgBOl0pBe3Ew6FHPL2E4-4">
          <mxGeometry relative="1" as="geometry">
            <mxPoint x="120" y="200" as="sourcePoint" />
            <mxPoint x="280" y="200" as="targetPoint" />
          </mxGeometry>
        </mxCell>
        <mxCell id="DgBOl0pBe3Ew6FHPL2E4-12" value="1(1)" style="text;html=1;align=center;verticalAlign=middle;whiteSpace=wrap;rounded=0;fontSize=16;" vertex="1" parent="1">
          <mxGeometry x="111" y="-10" width="60" height="30" as="geometry" />
        </mxCell>
        <mxCell id="DgBOl0pBe3Ew6FHPL2E4-14" value="M(0)" style="text;html=1;align=center;verticalAlign=middle;whiteSpace=wrap;rounded=0;fontSize=16;" vertex="1" parent="1">
          <mxGeometry x="115" y="203" width="60" height="30" as="geometry" />
        </mxCell>
        <mxCell id="DgBOl0pBe3Ew6FHPL2E4-16" value="PODCAST" style="whiteSpace=wrap;html=1;align=center;" vertex="1" parent="1">
          <mxGeometry x="454" y="306" width="100" height="40" as="geometry" />
        </mxCell>
        <mxCell id="DgBOl0pBe3Ew6FHPL2E4-17" value="ALBUM" style="whiteSpace=wrap;html=1;align=center;" vertex="1" parent="1">
          <mxGeometry x="454" y="161" width="100" height="40" as="geometry" />
        </mxCell>
        <mxCell id="DgBOl0pBe3Ew6FHPL2E4-19" value="LISTENER" style="whiteSpace=wrap;html=1;align=center;" vertex="1" parent="1">
          <mxGeometry x="451" y="-50" width="100" height="40" as="geometry" />
        </mxCell>
        <mxCell id="DgBOl0pBe3Ew6FHPL2E4-20" value="" style="triangle;whiteSpace=wrap;html=1;rotation=-90;" vertex="1" parent="1">
          <mxGeometry x="284.75" y="-181" width="42.5" height="49" as="geometry" />
        </mxCell>
        <mxCell id="DgBOl0pBe3Ew6FHPL2E4-21" value="IsA" style="text;html=1;align=center;verticalAlign=middle;whiteSpace=wrap;rounded=0;fontSize=16;" vertex="1" parent="1">
          <mxGeometry x="276" y="-164" width="60" height="30" as="geometry" />
        </mxCell>
        <mxCell id="DgBOl0pBe3Ew6FHPL2E4-24" value="" style="endArrow=none;html=1;rounded=0;fontSize=12;startSize=8;endSize=8;curved=1;exitX=0.5;exitY=1;exitDx=0;exitDy=0;entryX=1;entryY=0.5;entryDx=0;entryDy=0;" edge="1" parent="1" source="DgBOl0pBe3Ew6FHPL2E4-2" target="DgBOl0pBe3Ew6FHPL2E4-20">
          <mxGeometry relative="1" as="geometry">
            <mxPoint x="104" y="21" as="sourcePoint" />
            <mxPoint x="264" y="21" as="targetPoint" />
          </mxGeometry>
        </mxCell>
        <mxCell id="DgBOl0pBe3Ew6FHPL2E4-25" value="" style="endArrow=none;html=1;rounded=0;fontSize=12;startSize=8;endSize=8;curved=1;exitX=0.133;exitY=0.9;exitDx=0;exitDy=0;exitPerimeter=0;entryX=0.5;entryY=0;entryDx=0;entryDy=0;" edge="1" parent="1" source="DgBOl0pBe3Ew6FHPL2E4-21" target="DgBOl0pBe3Ew6FHPL2E4-8">
          <mxGeometry relative="1" as="geometry">
            <mxPoint x="162" y="-149" as="sourcePoint" />
            <mxPoint x="264" y="21" as="targetPoint" />
          </mxGeometry>
        </mxCell>
        <mxCell id="DgBOl0pBe3Ew6FHPL2E4-27" value="" style="endArrow=none;html=1;rounded=0;fontSize=12;startSize=8;endSize=8;curved=1;exitX=0.867;exitY=0.767;exitDx=0;exitDy=0;exitPerimeter=0;entryX=0.5;entryY=0;entryDx=0;entryDy=0;" edge="1" parent="1" source="DgBOl0pBe3Ew6FHPL2E4-21" target="DgBOl0pBe3Ew6FHPL2E4-19">
          <mxGeometry relative="1" as="geometry">
            <mxPoint x="309" y="-24" as="sourcePoint" />
            <mxPoint x="504" y="-69" as="targetPoint" />
          </mxGeometry>
        </mxCell>
        <mxCell id="DgBOl0pBe3Ew6FHPL2E4-28" value="creates" style="text;html=1;align=center;verticalAlign=middle;whiteSpace=wrap;rounded=0;fontSize=16;" vertex="1" parent="1">
          <mxGeometry x="122" y="97" width="60" height="30" as="geometry" />
        </mxCell>
        <mxCell id="DgBOl0pBe3Ew6FHPL2E4-32" value="EPISODE" style="whiteSpace=wrap;html=1;align=center;" vertex="1" parent="1">
          <mxGeometry x="454" y="414" width="99" height="40" as="geometry" />
        </mxCell>
        <mxCell id="DgBOl0pBe3Ew6FHPL2E4-34" value="contains" style="text;html=1;align=center;verticalAlign=middle;whiteSpace=wrap;rounded=0;fontSize=16;" vertex="1" parent="1">
          <mxGeometry x="363" y="119" width="60" height="30" as="geometry" />
        </mxCell>
        <mxCell id="DgBOl0pBe3Ew6FHPL2E4-35" value="SONG" style="whiteSpace=wrap;html=1;align=center;" vertex="1" parent="1">
          <mxGeometry x="245" y="82" width="100" height="40" as="geometry" />
        </mxCell>
        <mxCell id="DgBOl0pBe3Ew6FHPL2E4-36" value="" style="endArrow=none;html=1;rounded=0;fontSize=12;startSize=8;endSize=8;curved=1;entryX=0;entryY=0.5;entryDx=0;entryDy=0;exitX=0.5;exitY=1;exitDx=0;exitDy=0;" edge="1" parent="1" source="DgBOl0pBe3Ew6FHPL2E4-35" target="DgBOl0pBe3Ew6FHPL2E4-17">
          <mxGeometry relative="1" as="geometry">
            <mxPoint x="303" y="158" as="sourcePoint" />
            <mxPoint x="264" y="154" as="targetPoint" />
          </mxGeometry>
        </mxCell>
        <mxCell id="DgBOl0pBe3Ew6FHPL2E4-39" value="contains" style="text;html=1;align=center;verticalAlign=middle;whiteSpace=wrap;rounded=0;fontSize=16;" vertex="1" parent="1">
          <mxGeometry x="507" y="365" width="60" height="30" as="geometry" />
        </mxCell>
        <mxCell id="DgBOl0pBe3Ew6FHPL2E4-42" value="M(1)" style="text;html=1;align=center;verticalAlign=middle;whiteSpace=wrap;rounded=0;fontSize=16;" vertex="1" parent="1">
          <mxGeometry x="451" y="381" width="60" height="30" as="geometry" />
        </mxCell>
        <mxCell id="DgBOl0pBe3Ew6FHPL2E4-44" value="M(0)" style="text;html=1;align=center;verticalAlign=middle;whiteSpace=wrap;rounded=0;fontSize=16;" vertex="1" parent="1">
          <mxGeometry x="341" y="52" width="60" height="30" as="geometry" />
        </mxCell>
        <mxCell id="DgBOl0pBe3Ew6FHPL2E4-45" value="1(1)" style="text;html=1;align=center;verticalAlign=middle;whiteSpace=wrap;rounded=0;fontSize=16;" vertex="1" parent="1">
          <mxGeometry x="376.75" y="166" width="60" height="30" as="geometry" />
        </mxCell>
        <mxCell id="DgBOl0pBe3Ew6FHPL2E4-46" value="1(1)" style="text;html=1;align=center;verticalAlign=middle;whiteSpace=wrap;rounded=0;fontSize=16;" vertex="1" parent="1">
          <mxGeometry x="451" y="342" width="60" height="30" as="geometry" />
        </mxCell>
        <mxCell id="DgBOl0pBe3Ew6FHPL2E4-48" value="" style="endArrow=none;html=1;rounded=0;fontSize=12;startSize=8;endSize=8;curved=1;exitX=1;exitY=0.5;exitDx=0;exitDy=0;entryX=0;entryY=0.5;entryDx=0;entryDy=0;" edge="1" parent="1" source="DgBOl0pBe3Ew6FHPL2E4-8" target="DgBOl0pBe3Ew6FHPL2E4-19">
          <mxGeometry relative="1" as="geometry">
            <mxPoint x="227" y="114" as="sourcePoint" />
            <mxPoint x="387" y="114" as="targetPoint" />
          </mxGeometry>
        </mxCell>
        <mxCell id="DgBOl0pBe3Ew6FHPL2E4-49" value="follow" style="text;html=1;align=center;verticalAlign=middle;whiteSpace=wrap;rounded=0;fontSize=16;" vertex="1" parent="1">
          <mxGeometry x="281" y="-63" width="60" height="30" as="geometry" />
        </mxCell>
        <mxCell id="DgBOl0pBe3Ew6FHPL2E4-50" value="M(0)" style="text;html=1;align=center;verticalAlign=middle;whiteSpace=wrap;rounded=0;fontSize=16;" vertex="1" parent="1">
          <mxGeometry x="171" y="-63" width="60" height="30" as="geometry" />
        </mxCell>
        <mxCell id="DgBOl0pBe3Ew6FHPL2E4-51" value="M(0)" style="text;html=1;align=center;verticalAlign=middle;whiteSpace=wrap;rounded=0;fontSize=16;" vertex="1" parent="1">
          <mxGeometry x="387" y="-63" width="60" height="30" as="geometry" />
        </mxCell>
        <mxCell id="DgBOl0pBe3Ew6FHPL2E4-54" value="follow" style="text;html=1;align=center;verticalAlign=middle;whiteSpace=wrap;rounded=0;fontSize=16;" vertex="1" parent="1">
          <mxGeometry x="747" y="142" width="60" height="30" as="geometry" />
        </mxCell>
        <mxCell id="DgBOl0pBe3Ew6FHPL2E4-61" value="" style="endArrow=none;html=1;rounded=0;fontSize=12;startSize=8;endSize=8;curved=1;exitX=1;exitY=0.5;exitDx=0;exitDy=0;entryX=0.283;entryY=0.4;entryDx=0;entryDy=0;entryPerimeter=0;" edge="1" parent="1" source="DgBOl0pBe3Ew6FHPL2E4-4" target="DgBOl0pBe3Ew6FHPL2E4-7">
          <mxGeometry relative="1" as="geometry">
            <mxPoint x="239" y="200" as="sourcePoint" />
            <mxPoint x="399" y="200" as="targetPoint" />
          </mxGeometry>
        </mxCell>
        <mxCell id="DgBOl0pBe3Ew6FHPL2E4-62" value="" style="endArrow=none;html=1;rounded=0;fontSize=12;startSize=8;endSize=8;curved=1;entryX=0;entryY=0.5;entryDx=0;entryDy=0;" edge="1" parent="1" source="DgBOl0pBe3Ew6FHPL2E4-7" target="DgBOl0pBe3Ew6FHPL2E4-17">
          <mxGeometry relative="1" as="geometry">
            <mxPoint x="371" y="137" as="sourcePoint" />
            <mxPoint x="399" y="200" as="targetPoint" />
          </mxGeometry>
        </mxCell>
        <mxCell id="DgBOl0pBe3Ew6FHPL2E4-71" value="" style="endArrow=none;html=1;rounded=0;fontSize=12;startSize=8;endSize=8;curved=1;exitX=0;exitY=0.5;exitDx=0;exitDy=0;" edge="1" parent="1" source="DgBOl0pBe3Ew6FHPL2E4-16" target="DgBOl0pBe3Ew6FHPL2E4-7">
          <mxGeometry relative="1" as="geometry">
            <mxPoint x="239" y="200" as="sourcePoint" />
            <mxPoint x="399" y="200" as="targetPoint" />
          </mxGeometry>
        </mxCell>
        <mxCell id="DgBOl0pBe3Ew6FHPL2E4-73" value="" style="endArrow=none;html=1;rounded=0;fontSize=12;startSize=8;endSize=8;curved=1;exitX=1;exitY=0.5;exitDx=0;exitDy=0;entryX=1;entryY=0.5;entryDx=0;entryDy=0;" edge="1" parent="1" source="DgBOl0pBe3Ew6FHPL2E4-19" target="DgBOl0pBe3Ew6FHPL2E4-16">
          <mxGeometry relative="1" as="geometry">
            <mxPoint x="736" y="-33" as="sourcePoint" />
            <mxPoint x="896" y="-33" as="targetPoint" />
            <Array as="points">
              <mxPoint x="934" y="184" />
            </Array>
          </mxGeometry>
        </mxCell>
        <mxCell id="DgBOl0pBe3Ew6FHPL2E4-74" value="likes" style="text;html=1;align=center;verticalAlign=middle;whiteSpace=wrap;rounded=0;fontSize=16;" vertex="1" parent="1">
          <mxGeometry x="376.75" y="-10" width="60" height="30" as="geometry" />
        </mxCell>
        <mxCell id="DgBOl0pBe3Ew6FHPL2E4-75" value="M(0)" style="text;html=1;align=center;verticalAlign=middle;whiteSpace=wrap;rounded=0;fontSize=16;" vertex="1" parent="1">
          <mxGeometry x="556" y="314" width="60" height="30" as="geometry" />
        </mxCell>
        <mxCell id="DgBOl0pBe3Ew6FHPL2E4-77" value="M(0)" style="text;html=1;align=center;verticalAlign=middle;whiteSpace=wrap;rounded=0;fontSize=16;" vertex="1" parent="1">
          <mxGeometry x="564" y="-63" width="60" height="30" as="geometry" />
        </mxCell>
        <mxCell id="VRPCcUEetpurVZTlVMDN-4" value="" style="endArrow=none;html=1;rounded=0;fontSize=12;startSize=8;endSize=8;curved=1;exitX=0.5;exitY=0;exitDx=0;exitDy=0;entryX=0.5;entryY=1;entryDx=0;entryDy=0;" edge="1" parent="1" source="DgBOl0pBe3Ew6FHPL2E4-32" target="DgBOl0pBe3Ew6FHPL2E4-16">
          <mxGeometry relative="1" as="geometry">
            <mxPoint x="549" y="289" as="sourcePoint" />
            <mxPoint x="709" y="289" as="targetPoint" />
          </mxGeometry>
        </mxCell>
        <mxCell id="VRPCcUEetpurVZTlVMDN-5" value="" style="endArrow=none;html=1;rounded=0;fontSize=12;startSize=8;endSize=8;curved=1;exitX=0.5;exitY=0;exitDx=0;exitDy=0;entryX=0.48;entryY=1;entryDx=0;entryDy=0;entryPerimeter=0;" edge="1" parent="1" source="DgBOl0pBe3Ew6FHPL2E4-35" target="DgBOl0pBe3Ew6FHPL2E4-19">
          <mxGeometry relative="1" as="geometry">
            <mxPoint x="377" y="206" as="sourcePoint" />
            <mxPoint x="494" y="-12" as="targetPoint" />
          </mxGeometry>
        </mxCell>
        <mxCell id="VRPCcUEetpurVZTlVMDN-7" value="M(0)" style="text;html=1;align=center;verticalAlign=middle;whiteSpace=wrap;rounded=0;fontSize=16;" vertex="1" parent="1">
          <mxGeometry x="451" y="2" width="60" height="30" as="geometry" />
        </mxCell>
        <mxCell id="VRPCcUEetpurVZTlVMDN-8" value="M(1)" style="text;html=1;align=center;verticalAlign=middle;whiteSpace=wrap;rounded=0;fontSize=16;" vertex="1" parent="1">
          <mxGeometry x="256" y="124" width="60" height="30" as="geometry" />
        </mxCell>
        <mxCell id="VRPCcUEetpurVZTlVMDN-9" value="" style="endArrow=none;html=1;rounded=0;fontSize=12;startSize=8;endSize=8;curved=1;exitX=1;exitY=0.5;exitDx=0;exitDy=0;entryX=0.5;entryY=0;entryDx=0;entryDy=0;" edge="1" parent="1" source="DgBOl0pBe3Ew6FHPL2E4-8" target="DgBOl0pBe3Ew6FHPL2E4-35">
          <mxGeometry relative="1" as="geometry">
            <mxPoint x="121" y="206" as="sourcePoint" />
            <mxPoint x="281" y="206" as="targetPoint" />
          </mxGeometry>
        </mxCell>
        <mxCell id="VRPCcUEetpurVZTlVMDN-10" value="feat" style="text;html=1;align=center;verticalAlign=middle;whiteSpace=wrap;rounded=0;fontSize=16;" vertex="1" parent="1">
          <mxGeometry x="231" y="10" width="60" height="30" as="geometry" />
        </mxCell>
        <mxCell id="VRPCcUEetpurVZTlVMDN-11" value="M(0)" style="text;html=1;align=center;verticalAlign=middle;whiteSpace=wrap;rounded=0;fontSize=16;" vertex="1" parent="1">
          <mxGeometry x="224.75" y="55" width="60" height="30" as="geometry" />
        </mxCell>
        <mxCell id="VRPCcUEetpurVZTlVMDN-12" value="M(0)" style="text;html=1;align=center;verticalAlign=middle;whiteSpace=wrap;rounded=0;fontSize=16;" vertex="1" parent="1">
          <mxGeometry x="142" y="-13" width="60" height="30" as="geometry" />
        </mxCell>
        <mxCell id="VRPCcUEetpurVZTlVMDN-13" value="" style="endArrow=none;html=1;rounded=0;fontSize=12;startSize=8;endSize=8;curved=1;exitX=0.5;exitY=0;exitDx=0;exitDy=0;entryX=0.5;entryY=1;entryDx=0;entryDy=0;" edge="1" parent="1" source="DgBOl0pBe3Ew6FHPL2E4-17" target="DgBOl0pBe3Ew6FHPL2E4-19">
          <mxGeometry relative="1" as="geometry">
            <mxPoint x="691" y="-92" as="sourcePoint" />
            <mxPoint x="851" y="-92" as="targetPoint" />
          </mxGeometry>
        </mxCell>
        <mxCell id="VRPCcUEetpurVZTlVMDN-14" value="saves" style="text;html=1;align=center;verticalAlign=middle;whiteSpace=wrap;rounded=0;fontSize=16;" vertex="1" parent="1">
          <mxGeometry x="504" y="52" width="60" height="30" as="geometry" />
        </mxCell>
        <mxCell id="VRPCcUEetpurVZTlVMDN-16" value="M(0)" style="text;html=1;align=center;verticalAlign=middle;whiteSpace=wrap;rounded=0;fontSize=16;" vertex="1" parent="1">
          <mxGeometry x="498" y="131" width="60" height="30" as="geometry" />
        </mxCell>
        <mxCell id="VRPCcUEetpurVZTlVMDN-18" value="M(0)" style="text;html=1;align=center;verticalAlign=middle;whiteSpace=wrap;rounded=0;fontSize=16;" vertex="1" parent="1">
          <mxGeometry x="496" y="-3" width="60" height="30" as="geometry" />
        </mxCell>
        <mxCell id="Y2X7u2mrjyniXhfztRZK-2" value="" style="endArrow=none;html=1;rounded=0;fontSize=12;startSize=8;endSize=8;curved=1;exitX=1;exitY=0.5;exitDx=0;exitDy=0;entryX=0;entryY=0.5;entryDx=0;entryDy=0;" edge="1" parent="1" source="DgBOl0pBe3Ew6FHPL2E4-2" target="DgBOl0pBe3Ew6FHPL2E4-3">
          <mxGeometry relative="1" as="geometry">
            <mxPoint x="278" y="-30" as="sourcePoint" />
            <mxPoint x="438" y="-30" as="targetPoint" />
          </mxGeometry>
        </mxCell>
      </root>
    </mxGraphModel>
  </diagram>
  <diagram id="fk4SAkXQeIqk5R-I0IuY" name="Conceptual Diagram">
    <mxGraphModel dx="1800" dy="820" grid="0" gridSize="10" guides="1" tooltips="1" connect="1" arrows="1" fold="1" page="0" pageScale="1" pageWidth="827" pageHeight="1169" math="0" shadow="0">
      <root>
        <mxCell id="0" />
        <mxCell id="1" parent="0" />
        <mxCell id="K4JKcgcU3BRSNvJfxW2r-1" value="APP_USER" style="shape=table;startSize=30;container=1;collapsible=1;childLayout=tableLayout;fixedRows=1;rowLines=0;fontStyle=1;align=center;resizeLast=1;html=1;" vertex="1" parent="1">
          <mxGeometry x="110" y="125" width="180" height="270" as="geometry" />
        </mxCell>
        <mxCell id="K4JKcgcU3BRSNvJfxW2r-2" value="" style="shape=tableRow;horizontal=0;startSize=0;swimlaneHead=0;swimlaneBody=0;fillColor=none;collapsible=0;dropTarget=0;points=[[0,0.5],[1,0.5]];portConstraint=eastwest;top=0;left=0;right=0;bottom=1;" vertex="1" parent="K4JKcgcU3BRSNvJfxW2r-1">
          <mxGeometry y="30" width="180" height="30" as="geometry" />
        </mxCell>
        <mxCell id="K4JKcgcU3BRSNvJfxW2r-3" value="PK" style="shape=partialRectangle;connectable=0;fillColor=none;top=0;left=0;bottom=0;right=0;fontStyle=1;overflow=hidden;whiteSpace=wrap;html=1;" vertex="1" parent="K4JKcgcU3BRSNvJfxW2r-2">
          <mxGeometry width="30" height="30" as="geometry">
            <mxRectangle width="30" height="30" as="alternateBounds" />
          </mxGeometry>
        </mxCell>
        <mxCell id="K4JKcgcU3BRSNvJfxW2r-4" value="user_id" style="shape=partialRectangle;connectable=0;fillColor=none;top=0;left=0;bottom=0;right=0;align=left;spacingLeft=6;fontStyle=5;overflow=hidden;whiteSpace=wrap;html=1;" vertex="1" parent="K4JKcgcU3BRSNvJfxW2r-2">
          <mxGeometry x="30" width="150" height="30" as="geometry">
            <mxRectangle width="150" height="30" as="alternateBounds" />
          </mxGeometry>
        </mxCell>
        <mxCell id="K4JKcgcU3BRSNvJfxW2r-5" value="" style="shape=tableRow;horizontal=0;startSize=0;swimlaneHead=0;swimlaneBody=0;fillColor=none;collapsible=0;dropTarget=0;points=[[0,0.5],[1,0.5]];portConstraint=eastwest;top=0;left=0;right=0;bottom=0;" vertex="1" parent="K4JKcgcU3BRSNvJfxW2r-1">
          <mxGeometry y="60" width="180" height="30" as="geometry" />
        </mxCell>
        <mxCell id="K4JKcgcU3BRSNvJfxW2r-6" value="" style="shape=partialRectangle;connectable=0;fillColor=none;top=0;left=0;bottom=0;right=0;editable=1;overflow=hidden;whiteSpace=wrap;html=1;" vertex="1" parent="K4JKcgcU3BRSNvJfxW2r-5">
          <mxGeometry width="30" height="30" as="geometry">
            <mxRectangle width="30" height="30" as="alternateBounds" />
          </mxGeometry>
        </mxCell>
        <mxCell id="K4JKcgcU3BRSNvJfxW2r-7" value="first_name" style="shape=partialRectangle;connectable=0;fillColor=none;top=0;left=0;bottom=0;right=0;align=left;spacingLeft=6;overflow=hidden;whiteSpace=wrap;html=1;" vertex="1" parent="K4JKcgcU3BRSNvJfxW2r-5">
          <mxGeometry x="30" width="150" height="30" as="geometry">
            <mxRectangle width="150" height="30" as="alternateBounds" />
          </mxGeometry>
        </mxCell>
        <mxCell id="K4JKcgcU3BRSNvJfxW2r-8" value="" style="shape=tableRow;horizontal=0;startSize=0;swimlaneHead=0;swimlaneBody=0;fillColor=none;collapsible=0;dropTarget=0;points=[[0,0.5],[1,0.5]];portConstraint=eastwest;top=0;left=0;right=0;bottom=0;" vertex="1" parent="K4JKcgcU3BRSNvJfxW2r-1">
          <mxGeometry y="90" width="180" height="30" as="geometry" />
        </mxCell>
        <mxCell id="K4JKcgcU3BRSNvJfxW2r-9" value="" style="shape=partialRectangle;connectable=0;fillColor=none;top=0;left=0;bottom=0;right=0;editable=1;overflow=hidden;whiteSpace=wrap;html=1;" vertex="1" parent="K4JKcgcU3BRSNvJfxW2r-8">
          <mxGeometry width="30" height="30" as="geometry">
            <mxRectangle width="30" height="30" as="alternateBounds" />
          </mxGeometry>
        </mxCell>
        <mxCell id="K4JKcgcU3BRSNvJfxW2r-10" value="last_name" style="shape=partialRectangle;connectable=0;fillColor=none;top=0;left=0;bottom=0;right=0;align=left;spacingLeft=6;overflow=hidden;whiteSpace=wrap;html=1;" vertex="1" parent="K4JKcgcU3BRSNvJfxW2r-8">
          <mxGeometry x="30" width="150" height="30" as="geometry">
            <mxRectangle width="150" height="30" as="alternateBounds" />
          </mxGeometry>
        </mxCell>
        <mxCell id="K4JKcgcU3BRSNvJfxW2r-11" value="" style="shape=tableRow;horizontal=0;startSize=0;swimlaneHead=0;swimlaneBody=0;fillColor=none;collapsible=0;dropTarget=0;points=[[0,0.5],[1,0.5]];portConstraint=eastwest;top=0;left=0;right=0;bottom=0;" vertex="1" parent="K4JKcgcU3BRSNvJfxW2r-1">
          <mxGeometry y="120" width="180" height="30" as="geometry" />
        </mxCell>
        <mxCell id="K4JKcgcU3BRSNvJfxW2r-12" value="" style="shape=partialRectangle;connectable=0;fillColor=none;top=0;left=0;bottom=0;right=0;editable=1;overflow=hidden;whiteSpace=wrap;html=1;" vertex="1" parent="K4JKcgcU3BRSNvJfxW2r-11">
          <mxGeometry width="30" height="30" as="geometry">
            <mxRectangle width="30" height="30" as="alternateBounds" />
          </mxGeometry>
        </mxCell>
        <mxCell id="K4JKcgcU3BRSNvJfxW2r-13" value="email" style="shape=partialRectangle;connectable=0;fillColor=none;top=0;left=0;bottom=0;right=0;align=left;spacingLeft=6;overflow=hidden;whiteSpace=wrap;html=1;" vertex="1" parent="K4JKcgcU3BRSNvJfxW2r-11">
          <mxGeometry x="30" width="150" height="30" as="geometry">
            <mxRectangle width="150" height="30" as="alternateBounds" />
          </mxGeometry>
        </mxCell>
        <mxCell id="K4JKcgcU3BRSNvJfxW2r-15" value="" style="shape=tableRow;horizontal=0;startSize=0;swimlaneHead=0;swimlaneBody=0;fillColor=none;collapsible=0;dropTarget=0;points=[[0,0.5],[1,0.5]];portConstraint=eastwest;top=0;left=0;right=0;bottom=0;" vertex="1" parent="K4JKcgcU3BRSNvJfxW2r-1">
          <mxGeometry y="150" width="180" height="30" as="geometry" />
        </mxCell>
        <mxCell id="K4JKcgcU3BRSNvJfxW2r-16" value="" style="shape=partialRectangle;connectable=0;fillColor=none;top=0;left=0;bottom=0;right=0;editable=1;overflow=hidden;" vertex="1" parent="K4JKcgcU3BRSNvJfxW2r-15">
          <mxGeometry width="30" height="30" as="geometry">
            <mxRectangle width="30" height="30" as="alternateBounds" />
          </mxGeometry>
        </mxCell>
        <mxCell id="K4JKcgcU3BRSNvJfxW2r-17" value="username" style="shape=partialRectangle;connectable=0;fillColor=none;top=0;left=0;bottom=0;right=0;align=left;spacingLeft=6;overflow=hidden;" vertex="1" parent="K4JKcgcU3BRSNvJfxW2r-15">
          <mxGeometry x="30" width="150" height="30" as="geometry">
            <mxRectangle width="150" height="30" as="alternateBounds" />
          </mxGeometry>
        </mxCell>
        <mxCell id="K4JKcgcU3BRSNvJfxW2r-129" value="" style="shape=tableRow;horizontal=0;startSize=0;swimlaneHead=0;swimlaneBody=0;fillColor=none;collapsible=0;dropTarget=0;points=[[0,0.5],[1,0.5]];portConstraint=eastwest;top=0;left=0;right=0;bottom=0;" vertex="1" parent="K4JKcgcU3BRSNvJfxW2r-1">
          <mxGeometry y="180" width="180" height="30" as="geometry" />
        </mxCell>
        <mxCell id="K4JKcgcU3BRSNvJfxW2r-130" value="" style="shape=partialRectangle;connectable=0;fillColor=none;top=0;left=0;bottom=0;right=0;editable=1;overflow=hidden;" vertex="1" parent="K4JKcgcU3BRSNvJfxW2r-129">
          <mxGeometry width="30" height="30" as="geometry">
            <mxRectangle width="30" height="30" as="alternateBounds" />
          </mxGeometry>
        </mxCell>
        <mxCell id="K4JKcgcU3BRSNvJfxW2r-131" value="profile_pic" style="shape=partialRectangle;connectable=0;fillColor=none;top=0;left=0;bottom=0;right=0;align=left;spacingLeft=6;overflow=hidden;" vertex="1" parent="K4JKcgcU3BRSNvJfxW2r-129">
          <mxGeometry x="30" width="150" height="30" as="geometry">
            <mxRectangle width="150" height="30" as="alternateBounds" />
          </mxGeometry>
        </mxCell>
        <mxCell id="K4JKcgcU3BRSNvJfxW2r-19" value="" style="shape=tableRow;horizontal=0;startSize=0;swimlaneHead=0;swimlaneBody=0;fillColor=none;collapsible=0;dropTarget=0;points=[[0,0.5],[1,0.5]];portConstraint=eastwest;top=0;left=0;right=0;bottom=0;" vertex="1" parent="K4JKcgcU3BRSNvJfxW2r-1">
          <mxGeometry y="210" width="180" height="30" as="geometry" />
        </mxCell>
        <mxCell id="K4JKcgcU3BRSNvJfxW2r-20" value="" style="shape=partialRectangle;connectable=0;fillColor=none;top=0;left=0;bottom=0;right=0;editable=1;overflow=hidden;" vertex="1" parent="K4JKcgcU3BRSNvJfxW2r-19">
          <mxGeometry width="30" height="30" as="geometry">
            <mxRectangle width="30" height="30" as="alternateBounds" />
          </mxGeometry>
        </mxCell>
        <mxCell id="K4JKcgcU3BRSNvJfxW2r-21" value="register_date" style="shape=partialRectangle;connectable=0;fillColor=none;top=0;left=0;bottom=0;right=0;align=left;spacingLeft=6;overflow=hidden;" vertex="1" parent="K4JKcgcU3BRSNvJfxW2r-19">
          <mxGeometry x="30" width="150" height="30" as="geometry">
            <mxRectangle width="150" height="30" as="alternateBounds" />
          </mxGeometry>
        </mxCell>
        <mxCell id="K4JKcgcU3BRSNvJfxW2r-23" value="" style="shape=tableRow;horizontal=0;startSize=0;swimlaneHead=0;swimlaneBody=0;fillColor=none;collapsible=0;dropTarget=0;points=[[0,0.5],[1,0.5]];portConstraint=eastwest;top=0;left=0;right=0;bottom=0;" vertex="1" parent="K4JKcgcU3BRSNvJfxW2r-1">
          <mxGeometry y="240" width="180" height="30" as="geometry" />
        </mxCell>
        <mxCell id="K4JKcgcU3BRSNvJfxW2r-24" value="" style="shape=partialRectangle;connectable=0;fillColor=none;top=0;left=0;bottom=0;right=0;editable=1;overflow=hidden;" vertex="1" parent="K4JKcgcU3BRSNvJfxW2r-23">
          <mxGeometry width="30" height="30" as="geometry">
            <mxRectangle width="30" height="30" as="alternateBounds" />
          </mxGeometry>
        </mxCell>
        <mxCell id="K4JKcgcU3BRSNvJfxW2r-25" value="phone_number" style="shape=partialRectangle;connectable=0;fillColor=none;top=0;left=0;bottom=0;right=0;align=left;spacingLeft=6;overflow=hidden;" vertex="1" parent="K4JKcgcU3BRSNvJfxW2r-23">
          <mxGeometry x="30" width="150" height="30" as="geometry">
            <mxRectangle width="150" height="30" as="alternateBounds" />
          </mxGeometry>
        </mxCell>
        <mxCell id="K4JKcgcU3BRSNvJfxW2r-47" value="TRACK" style="shape=table;startSize=30;container=1;collapsible=1;childLayout=tableLayout;fixedRows=1;rowLines=0;fontStyle=1;align=center;resizeLast=1;html=1;" vertex="1" parent="1">
          <mxGeometry x="-191" y="1088" width="180" height="180" as="geometry" />
        </mxCell>
        <mxCell id="K4JKcgcU3BRSNvJfxW2r-48" value="" style="shape=tableRow;horizontal=0;startSize=0;swimlaneHead=0;swimlaneBody=0;fillColor=none;collapsible=0;dropTarget=0;points=[[0,0.5],[1,0.5]];portConstraint=eastwest;top=0;left=0;right=0;bottom=1;" vertex="1" parent="K4JKcgcU3BRSNvJfxW2r-47">
          <mxGeometry y="30" width="180" height="30" as="geometry" />
        </mxCell>
        <mxCell id="K4JKcgcU3BRSNvJfxW2r-49" value="PK" style="shape=partialRectangle;connectable=0;fillColor=none;top=0;left=0;bottom=0;right=0;fontStyle=1;overflow=hidden;whiteSpace=wrap;html=1;" vertex="1" parent="K4JKcgcU3BRSNvJfxW2r-48">
          <mxGeometry width="30" height="30" as="geometry">
            <mxRectangle width="30" height="30" as="alternateBounds" />
          </mxGeometry>
        </mxCell>
        <mxCell id="K4JKcgcU3BRSNvJfxW2r-50" value="track_id" style="shape=partialRectangle;connectable=0;fillColor=none;top=0;left=0;bottom=0;right=0;align=left;spacingLeft=6;fontStyle=5;overflow=hidden;whiteSpace=wrap;html=1;" vertex="1" parent="K4JKcgcU3BRSNvJfxW2r-48">
          <mxGeometry x="30" width="150" height="30" as="geometry">
            <mxRectangle width="150" height="30" as="alternateBounds" />
          </mxGeometry>
        </mxCell>
        <mxCell id="K4JKcgcU3BRSNvJfxW2r-65" value="" style="shape=tableRow;horizontal=0;startSize=0;swimlaneHead=0;swimlaneBody=0;fillColor=none;collapsible=0;dropTarget=0;points=[[0,0.5],[1,0.5]];portConstraint=eastwest;top=0;left=0;right=0;bottom=0;" vertex="1" parent="K4JKcgcU3BRSNvJfxW2r-47">
          <mxGeometry y="60" width="180" height="30" as="geometry" />
        </mxCell>
        <mxCell id="K4JKcgcU3BRSNvJfxW2r-66" value="FK" style="shape=partialRectangle;connectable=0;fillColor=none;top=0;left=0;bottom=0;right=0;fontStyle=0;overflow=hidden;whiteSpace=wrap;html=1;" vertex="1" parent="K4JKcgcU3BRSNvJfxW2r-65">
          <mxGeometry width="30" height="30" as="geometry">
            <mxRectangle width="30" height="30" as="alternateBounds" />
          </mxGeometry>
        </mxCell>
        <mxCell id="K4JKcgcU3BRSNvJfxW2r-67" value="artist_id" style="shape=partialRectangle;connectable=0;fillColor=none;top=0;left=0;bottom=0;right=0;align=left;spacingLeft=6;fontStyle=0;overflow=hidden;whiteSpace=wrap;html=1;" vertex="1" parent="K4JKcgcU3BRSNvJfxW2r-65">
          <mxGeometry x="30" width="150" height="30" as="geometry">
            <mxRectangle width="150" height="30" as="alternateBounds" />
          </mxGeometry>
        </mxCell>
        <mxCell id="K4JKcgcU3BRSNvJfxW2r-51" value="" style="shape=tableRow;horizontal=0;startSize=0;swimlaneHead=0;swimlaneBody=0;fillColor=none;collapsible=0;dropTarget=0;points=[[0,0.5],[1,0.5]];portConstraint=eastwest;top=0;left=0;right=0;bottom=0;" vertex="1" parent="K4JKcgcU3BRSNvJfxW2r-47">
          <mxGeometry y="90" width="180" height="30" as="geometry" />
        </mxCell>
        <mxCell id="K4JKcgcU3BRSNvJfxW2r-52" value="" style="shape=partialRectangle;connectable=0;fillColor=none;top=0;left=0;bottom=0;right=0;editable=1;overflow=hidden;whiteSpace=wrap;html=1;" vertex="1" parent="K4JKcgcU3BRSNvJfxW2r-51">
          <mxGeometry width="30" height="30" as="geometry">
            <mxRectangle width="30" height="30" as="alternateBounds" />
          </mxGeometry>
        </mxCell>
        <mxCell id="K4JKcgcU3BRSNvJfxW2r-53" value="name" style="shape=partialRectangle;connectable=0;fillColor=none;top=0;left=0;bottom=0;right=0;align=left;spacingLeft=6;overflow=hidden;whiteSpace=wrap;html=1;" vertex="1" parent="K4JKcgcU3BRSNvJfxW2r-51">
          <mxGeometry x="30" width="150" height="30" as="geometry">
            <mxRectangle width="150" height="30" as="alternateBounds" />
          </mxGeometry>
        </mxCell>
        <mxCell id="K4JKcgcU3BRSNvJfxW2r-54" value="" style="shape=tableRow;horizontal=0;startSize=0;swimlaneHead=0;swimlaneBody=0;fillColor=none;collapsible=0;dropTarget=0;points=[[0,0.5],[1,0.5]];portConstraint=eastwest;top=0;left=0;right=0;bottom=0;" vertex="1" parent="K4JKcgcU3BRSNvJfxW2r-47">
          <mxGeometry y="120" width="180" height="30" as="geometry" />
        </mxCell>
        <mxCell id="K4JKcgcU3BRSNvJfxW2r-55" value="" style="shape=partialRectangle;connectable=0;fillColor=none;top=0;left=0;bottom=0;right=0;editable=1;overflow=hidden;whiteSpace=wrap;html=1;" vertex="1" parent="K4JKcgcU3BRSNvJfxW2r-54">
          <mxGeometry width="30" height="30" as="geometry">
            <mxRectangle width="30" height="30" as="alternateBounds" />
          </mxGeometry>
        </mxCell>
        <mxCell id="K4JKcgcU3BRSNvJfxW2r-56" value="picture" style="shape=partialRectangle;connectable=0;fillColor=none;top=0;left=0;bottom=0;right=0;align=left;spacingLeft=6;overflow=hidden;whiteSpace=wrap;html=1;" vertex="1" parent="K4JKcgcU3BRSNvJfxW2r-54">
          <mxGeometry x="30" width="150" height="30" as="geometry">
            <mxRectangle width="150" height="30" as="alternateBounds" />
          </mxGeometry>
        </mxCell>
        <mxCell id="K4JKcgcU3BRSNvJfxW2r-57" value="" style="shape=tableRow;horizontal=0;startSize=0;swimlaneHead=0;swimlaneBody=0;fillColor=none;collapsible=0;dropTarget=0;points=[[0,0.5],[1,0.5]];portConstraint=eastwest;top=0;left=0;right=0;bottom=0;" vertex="1" parent="K4JKcgcU3BRSNvJfxW2r-47">
          <mxGeometry y="150" width="180" height="30" as="geometry" />
        </mxCell>
        <mxCell id="K4JKcgcU3BRSNvJfxW2r-58" value="" style="shape=partialRectangle;connectable=0;fillColor=none;top=0;left=0;bottom=0;right=0;editable=1;overflow=hidden;whiteSpace=wrap;html=1;" vertex="1" parent="K4JKcgcU3BRSNvJfxW2r-57">
          <mxGeometry width="30" height="30" as="geometry">
            <mxRectangle width="30" height="30" as="alternateBounds" />
          </mxGeometry>
        </mxCell>
        <mxCell id="K4JKcgcU3BRSNvJfxW2r-59" value="release_date" style="shape=partialRectangle;connectable=0;fillColor=none;top=0;left=0;bottom=0;right=0;align=left;spacingLeft=6;overflow=hidden;whiteSpace=wrap;html=1;" vertex="1" parent="K4JKcgcU3BRSNvJfxW2r-57">
          <mxGeometry x="30" width="150" height="30" as="geometry">
            <mxRectangle width="150" height="30" as="alternateBounds" />
          </mxGeometry>
        </mxCell>
        <mxCell id="K4JKcgcU3BRSNvJfxW2r-69" value="" style="endArrow=none;html=1;rounded=0;fontSize=12;startSize=8;endSize=8;curved=1;entryX=0.487;entryY=1.014;entryDx=0;entryDy=0;entryPerimeter=0;exitX=0.5;exitY=0;exitDx=0;exitDy=0;" edge="1" parent="1" source="K4JKcgcU3BRSNvJfxW2r-70" target="K4JKcgcU3BRSNvJfxW2r-23">
          <mxGeometry relative="1" as="geometry">
            <mxPoint x="-44" y="509" as="sourcePoint" />
            <mxPoint x="336" y="497" as="targetPoint" />
          </mxGeometry>
        </mxCell>
        <mxCell id="K4JKcgcU3BRSNvJfxW2r-70" value="ARTIST" style="shape=table;startSize=30;container=1;collapsible=1;childLayout=tableLayout;fixedRows=1;rowLines=0;fontStyle=1;align=center;resizeLast=1;html=1;" vertex="1" parent="1">
          <mxGeometry x="-191" y="500" width="180" height="210" as="geometry" />
        </mxCell>
        <mxCell id="K4JKcgcU3BRSNvJfxW2r-71" value="" style="shape=tableRow;horizontal=0;startSize=0;swimlaneHead=0;swimlaneBody=0;fillColor=none;collapsible=0;dropTarget=0;points=[[0,0.5],[1,0.5]];portConstraint=eastwest;top=0;left=0;right=0;bottom=1;" vertex="1" parent="K4JKcgcU3BRSNvJfxW2r-70">
          <mxGeometry y="30" width="180" height="30" as="geometry" />
        </mxCell>
        <mxCell id="K4JKcgcU3BRSNvJfxW2r-72" value="PK" style="shape=partialRectangle;connectable=0;fillColor=none;top=0;left=0;bottom=0;right=0;fontStyle=1;overflow=hidden;whiteSpace=wrap;html=1;" vertex="1" parent="K4JKcgcU3BRSNvJfxW2r-71">
          <mxGeometry width="30" height="30" as="geometry">
            <mxRectangle width="30" height="30" as="alternateBounds" />
          </mxGeometry>
        </mxCell>
        <mxCell id="K4JKcgcU3BRSNvJfxW2r-73" value="artist_id" style="shape=partialRectangle;connectable=0;fillColor=none;top=0;left=0;bottom=0;right=0;align=left;spacingLeft=6;fontStyle=5;overflow=hidden;whiteSpace=wrap;html=1;" vertex="1" parent="K4JKcgcU3BRSNvJfxW2r-71">
          <mxGeometry x="30" width="150" height="30" as="geometry">
            <mxRectangle width="150" height="30" as="alternateBounds" />
          </mxGeometry>
        </mxCell>
        <mxCell id="K4JKcgcU3BRSNvJfxW2r-84" value="" style="shape=tableRow;horizontal=0;startSize=0;swimlaneHead=0;swimlaneBody=0;fillColor=none;collapsible=0;dropTarget=0;points=[[0,0.5],[1,0.5]];portConstraint=eastwest;top=0;left=0;right=0;bottom=0;" vertex="1" parent="K4JKcgcU3BRSNvJfxW2r-70">
          <mxGeometry y="60" width="180" height="30" as="geometry" />
        </mxCell>
        <mxCell id="K4JKcgcU3BRSNvJfxW2r-85" value="FK" style="shape=partialRectangle;connectable=0;fillColor=none;top=0;left=0;bottom=0;right=0;fontStyle=0;overflow=hidden;whiteSpace=wrap;html=1;" vertex="1" parent="K4JKcgcU3BRSNvJfxW2r-84">
          <mxGeometry width="30" height="30" as="geometry">
            <mxRectangle width="30" height="30" as="alternateBounds" />
          </mxGeometry>
        </mxCell>
        <mxCell id="K4JKcgcU3BRSNvJfxW2r-86" value="user_id" style="shape=partialRectangle;connectable=0;fillColor=none;top=0;left=0;bottom=0;right=0;align=left;spacingLeft=6;fontStyle=0;overflow=hidden;whiteSpace=wrap;html=1;" vertex="1" parent="K4JKcgcU3BRSNvJfxW2r-84">
          <mxGeometry x="30" width="150" height="30" as="geometry">
            <mxRectangle width="150" height="30" as="alternateBounds" />
          </mxGeometry>
        </mxCell>
        <mxCell id="K4JKcgcU3BRSNvJfxW2r-74" value="" style="shape=tableRow;horizontal=0;startSize=0;swimlaneHead=0;swimlaneBody=0;fillColor=none;collapsible=0;dropTarget=0;points=[[0,0.5],[1,0.5]];portConstraint=eastwest;top=0;left=0;right=0;bottom=0;" vertex="1" parent="K4JKcgcU3BRSNvJfxW2r-70">
          <mxGeometry y="90" width="180" height="30" as="geometry" />
        </mxCell>
        <mxCell id="K4JKcgcU3BRSNvJfxW2r-75" value="" style="shape=partialRectangle;connectable=0;fillColor=none;top=0;left=0;bottom=0;right=0;editable=1;overflow=hidden;whiteSpace=wrap;html=1;" vertex="1" parent="K4JKcgcU3BRSNvJfxW2r-74">
          <mxGeometry width="30" height="30" as="geometry">
            <mxRectangle width="30" height="30" as="alternateBounds" />
          </mxGeometry>
        </mxCell>
        <mxCell id="K4JKcgcU3BRSNvJfxW2r-76" value="description" style="shape=partialRectangle;connectable=0;fillColor=none;top=0;left=0;bottom=0;right=0;align=left;spacingLeft=6;overflow=hidden;whiteSpace=wrap;html=1;" vertex="1" parent="K4JKcgcU3BRSNvJfxW2r-74">
          <mxGeometry x="30" width="150" height="30" as="geometry">
            <mxRectangle width="150" height="30" as="alternateBounds" />
          </mxGeometry>
        </mxCell>
        <mxCell id="K4JKcgcU3BRSNvJfxW2r-77" value="" style="shape=tableRow;horizontal=0;startSize=0;swimlaneHead=0;swimlaneBody=0;fillColor=none;collapsible=0;dropTarget=0;points=[[0,0.5],[1,0.5]];portConstraint=eastwest;top=0;left=0;right=0;bottom=0;" vertex="1" parent="K4JKcgcU3BRSNvJfxW2r-70">
          <mxGeometry y="120" width="180" height="30" as="geometry" />
        </mxCell>
        <mxCell id="K4JKcgcU3BRSNvJfxW2r-78" value="" style="shape=partialRectangle;connectable=0;fillColor=none;top=0;left=0;bottom=0;right=0;editable=1;overflow=hidden;whiteSpace=wrap;html=1;" vertex="1" parent="K4JKcgcU3BRSNvJfxW2r-77">
          <mxGeometry width="30" height="30" as="geometry">
            <mxRectangle width="30" height="30" as="alternateBounds" />
          </mxGeometry>
        </mxCell>
        <mxCell id="K4JKcgcU3BRSNvJfxW2r-79" value="monthly_listeners" style="shape=partialRectangle;connectable=0;fillColor=none;top=0;left=0;bottom=0;right=0;align=left;spacingLeft=6;overflow=hidden;whiteSpace=wrap;html=1;" vertex="1" parent="K4JKcgcU3BRSNvJfxW2r-77">
          <mxGeometry x="30" width="150" height="30" as="geometry">
            <mxRectangle width="150" height="30" as="alternateBounds" />
          </mxGeometry>
        </mxCell>
        <mxCell id="K4JKcgcU3BRSNvJfxW2r-80" value="" style="shape=tableRow;horizontal=0;startSize=0;swimlaneHead=0;swimlaneBody=0;fillColor=none;collapsible=0;dropTarget=0;points=[[0,0.5],[1,0.5]];portConstraint=eastwest;top=0;left=0;right=0;bottom=0;" vertex="1" parent="K4JKcgcU3BRSNvJfxW2r-70">
          <mxGeometry y="150" width="180" height="30" as="geometry" />
        </mxCell>
        <mxCell id="K4JKcgcU3BRSNvJfxW2r-81" value="" style="shape=partialRectangle;connectable=0;fillColor=none;top=0;left=0;bottom=0;right=0;editable=1;overflow=hidden;whiteSpace=wrap;html=1;" vertex="1" parent="K4JKcgcU3BRSNvJfxW2r-80">
          <mxGeometry width="30" height="30" as="geometry">
            <mxRectangle width="30" height="30" as="alternateBounds" />
          </mxGeometry>
        </mxCell>
        <mxCell id="K4JKcgcU3BRSNvJfxW2r-82" value="verified" style="shape=partialRectangle;connectable=0;fillColor=none;top=0;left=0;bottom=0;right=0;align=left;spacingLeft=6;overflow=hidden;whiteSpace=wrap;html=1;" vertex="1" parent="K4JKcgcU3BRSNvJfxW2r-80">
          <mxGeometry x="30" width="150" height="30" as="geometry">
            <mxRectangle width="150" height="30" as="alternateBounds" />
          </mxGeometry>
        </mxCell>
        <mxCell id="K4JKcgcU3BRSNvJfxW2r-89" value="" style="shape=tableRow;horizontal=0;startSize=0;swimlaneHead=0;swimlaneBody=0;fillColor=none;collapsible=0;dropTarget=0;points=[[0,0.5],[1,0.5]];portConstraint=eastwest;top=0;left=0;right=0;bottom=0;" vertex="1" parent="K4JKcgcU3BRSNvJfxW2r-70">
          <mxGeometry y="180" width="180" height="30" as="geometry" />
        </mxCell>
        <mxCell id="K4JKcgcU3BRSNvJfxW2r-90" value="" style="shape=partialRectangle;connectable=0;fillColor=none;top=0;left=0;bottom=0;right=0;editable=1;overflow=hidden;" vertex="1" parent="K4JKcgcU3BRSNvJfxW2r-89">
          <mxGeometry width="30" height="30" as="geometry">
            <mxRectangle width="30" height="30" as="alternateBounds" />
          </mxGeometry>
        </mxCell>
        <mxCell id="K4JKcgcU3BRSNvJfxW2r-91" value="label" style="shape=partialRectangle;connectable=0;fillColor=none;top=0;left=0;bottom=0;right=0;align=left;spacingLeft=6;overflow=hidden;" vertex="1" parent="K4JKcgcU3BRSNvJfxW2r-89">
          <mxGeometry x="30" width="150" height="30" as="geometry">
            <mxRectangle width="150" height="30" as="alternateBounds" />
          </mxGeometry>
        </mxCell>
        <mxCell id="K4JKcgcU3BRSNvJfxW2r-111" value="LISTENER" style="shape=table;startSize=30;container=1;collapsible=1;childLayout=tableLayout;fixedRows=1;rowLines=0;fontStyle=1;align=center;resizeLast=1;html=1;" vertex="1" parent="1">
          <mxGeometry x="562" y="519" width="180" height="127.00002569901312" as="geometry" />
        </mxCell>
        <mxCell id="K4JKcgcU3BRSNvJfxW2r-112" value="" style="shape=tableRow;horizontal=0;startSize=0;swimlaneHead=0;swimlaneBody=0;fillColor=none;collapsible=0;dropTarget=0;points=[[0,0.5],[1,0.5]];portConstraint=eastwest;top=0;left=0;right=0;bottom=1;" vertex="1" parent="K4JKcgcU3BRSNvJfxW2r-111">
          <mxGeometry y="30" width="180" height="30" as="geometry" />
        </mxCell>
        <mxCell id="K4JKcgcU3BRSNvJfxW2r-113" value="PK" style="shape=partialRectangle;connectable=0;fillColor=none;top=0;left=0;bottom=0;right=0;fontStyle=1;overflow=hidden;whiteSpace=wrap;html=1;" vertex="1" parent="K4JKcgcU3BRSNvJfxW2r-112">
          <mxGeometry width="32.15789473684214" height="30" as="geometry">
            <mxRectangle width="32.15789473684214" height="30" as="alternateBounds" />
          </mxGeometry>
        </mxCell>
        <mxCell id="K4JKcgcU3BRSNvJfxW2r-114" value="listener_id" style="shape=partialRectangle;connectable=0;fillColor=none;top=0;left=0;bottom=0;right=0;align=left;spacingLeft=6;fontStyle=5;overflow=hidden;whiteSpace=wrap;html=1;" vertex="1" parent="K4JKcgcU3BRSNvJfxW2r-112">
          <mxGeometry x="32.15789473684214" width="147.84210526315786" height="30" as="geometry">
            <mxRectangle width="147.84210526315786" height="30" as="alternateBounds" />
          </mxGeometry>
        </mxCell>
        <mxCell id="K4JKcgcU3BRSNvJfxW2r-125" value="" style="shape=tableRow;horizontal=0;startSize=0;swimlaneHead=0;swimlaneBody=0;fillColor=none;collapsible=0;dropTarget=0;points=[[0,0.5],[1,0.5]];portConstraint=eastwest;top=0;left=0;right=0;bottom=0;" vertex="1" parent="K4JKcgcU3BRSNvJfxW2r-111">
          <mxGeometry y="60" width="180" height="30" as="geometry" />
        </mxCell>
        <mxCell id="K4JKcgcU3BRSNvJfxW2r-126" value="FK" style="shape=partialRectangle;connectable=0;fillColor=none;top=0;left=0;bottom=0;right=0;fontStyle=0;overflow=hidden;whiteSpace=wrap;html=1;" vertex="1" parent="K4JKcgcU3BRSNvJfxW2r-125">
          <mxGeometry width="32.15789473684214" height="30" as="geometry">
            <mxRectangle width="32.15789473684214" height="30" as="alternateBounds" />
          </mxGeometry>
        </mxCell>
        <mxCell id="K4JKcgcU3BRSNvJfxW2r-127" value="user_id" style="shape=partialRectangle;connectable=0;fillColor=none;top=0;left=0;bottom=0;right=0;align=left;spacingLeft=6;fontStyle=0;overflow=hidden;whiteSpace=wrap;html=1;" vertex="1" parent="K4JKcgcU3BRSNvJfxW2r-125">
          <mxGeometry x="32.15789473684214" width="147.84210526315786" height="30" as="geometry">
            <mxRectangle width="147.84210526315786" height="30" as="alternateBounds" />
          </mxGeometry>
        </mxCell>
        <mxCell id="K4JKcgcU3BRSNvJfxW2r-115" value="" style="shape=tableRow;horizontal=0;startSize=0;swimlaneHead=0;swimlaneBody=0;fillColor=none;collapsible=0;dropTarget=0;points=[[0,0.5],[1,0.5]];portConstraint=eastwest;top=0;left=0;right=0;bottom=0;" vertex="1" parent="K4JKcgcU3BRSNvJfxW2r-111">
          <mxGeometry y="90" width="180" height="37" as="geometry" />
        </mxCell>
        <mxCell id="K4JKcgcU3BRSNvJfxW2r-116" value="" style="shape=partialRectangle;connectable=0;fillColor=none;top=0;left=0;bottom=0;right=0;editable=1;overflow=hidden;whiteSpace=wrap;html=1;" vertex="1" parent="K4JKcgcU3BRSNvJfxW2r-115">
          <mxGeometry width="32.15789473684214" height="37" as="geometry">
            <mxRectangle width="32.15789473684214" height="37" as="alternateBounds" />
          </mxGeometry>
        </mxCell>
        <mxCell id="K4JKcgcU3BRSNvJfxW2r-117" value="time_played" style="shape=partialRectangle;connectable=0;fillColor=none;top=0;left=0;bottom=0;right=0;align=left;spacingLeft=6;overflow=hidden;whiteSpace=wrap;html=1;" vertex="1" parent="K4JKcgcU3BRSNvJfxW2r-115">
          <mxGeometry x="32.15789473684214" width="147.84210526315786" height="37" as="geometry">
            <mxRectangle width="147.84210526315786" height="37" as="alternateBounds" />
          </mxGeometry>
        </mxCell>
        <mxCell id="K4JKcgcU3BRSNvJfxW2r-132" value="" style="endArrow=none;html=1;rounded=0;fontSize=12;startSize=8;endSize=8;curved=1;entryX=0.497;entryY=0.996;entryDx=0;entryDy=0;entryPerimeter=0;exitX=0.5;exitY=0;exitDx=0;exitDy=0;" edge="1" parent="1" source="K4JKcgcU3BRSNvJfxW2r-111" target="K4JKcgcU3BRSNvJfxW2r-23">
          <mxGeometry relative="1" as="geometry">
            <mxPoint x="25" y="548" as="sourcePoint" />
            <mxPoint x="185" y="548" as="targetPoint" />
          </mxGeometry>
        </mxCell>
        <mxCell id="K4JKcgcU3BRSNvJfxW2r-133" value="" style="endArrow=none;html=1;rounded=0;fontSize=12;startSize=8;endSize=8;curved=1;entryX=0.5;entryY=0;entryDx=0;entryDy=0;exitX=0.499;exitY=1.163;exitDx=0;exitDy=0;exitPerimeter=0;" edge="1" parent="1" source="K4JKcgcU3BRSNvJfxW2r-89" target="K4JKcgcU3BRSNvJfxW2r-47">
          <mxGeometry relative="1" as="geometry">
            <mxPoint x="-34" y="765" as="sourcePoint" />
            <mxPoint x="136" y="739" as="targetPoint" />
          </mxGeometry>
        </mxCell>
        <mxCell id="K4JKcgcU3BRSNvJfxW2r-134" value="LISTENER_FOLLOW_ARTIST" style="shape=table;startSize=30;container=1;collapsible=1;childLayout=tableLayout;fixedRows=1;rowLines=0;fontStyle=1;align=center;resizeLast=1;html=1;" vertex="1" parent="1">
          <mxGeometry x="110" y="500" width="180" height="60.368427477384785" as="geometry" />
        </mxCell>
        <mxCell id="K4JKcgcU3BRSNvJfxW2r-135" value="" style="shape=tableRow;horizontal=0;startSize=0;swimlaneHead=0;swimlaneBody=0;fillColor=none;collapsible=0;dropTarget=0;points=[[0,0.5],[1,0.5]];portConstraint=eastwest;top=0;left=0;right=0;bottom=1;" vertex="1" parent="K4JKcgcU3BRSNvJfxW2r-134">
          <mxGeometry y="30" width="180" height="30" as="geometry" />
        </mxCell>
        <mxCell id="K4JKcgcU3BRSNvJfxW2r-136" value="PK" style="shape=partialRectangle;connectable=0;fillColor=none;top=0;left=0;bottom=0;right=0;fontStyle=1;overflow=hidden;whiteSpace=wrap;html=1;" vertex="1" parent="K4JKcgcU3BRSNvJfxW2r-135">
          <mxGeometry width="31.26320929276315" height="30" as="geometry">
            <mxRectangle width="31.26320929276315" height="30" as="alternateBounds" />
          </mxGeometry>
        </mxCell>
        <mxCell id="K4JKcgcU3BRSNvJfxW2r-137" value="(artist_id, listener_id)" style="shape=partialRectangle;connectable=0;fillColor=none;top=0;left=0;bottom=0;right=0;align=left;spacingLeft=6;fontStyle=5;overflow=hidden;whiteSpace=wrap;html=1;" vertex="1" parent="K4JKcgcU3BRSNvJfxW2r-135">
          <mxGeometry x="31.26320929276315" width="148.73679070723685" height="30" as="geometry">
            <mxRectangle width="148.73679070723685" height="30" as="alternateBounds" />
          </mxGeometry>
        </mxCell>
        <mxCell id="K4JKcgcU3BRSNvJfxW2r-147" value="" style="endArrow=none;html=1;rounded=0;fontSize=12;startSize=8;endSize=8;curved=1;entryX=0;entryY=0.25;entryDx=0;entryDy=0;" edge="1" parent="1" target="K4JKcgcU3BRSNvJfxW2r-134">
          <mxGeometry relative="1" as="geometry">
            <mxPoint x="-7" y="515" as="sourcePoint" />
            <mxPoint x="136" y="633" as="targetPoint" />
          </mxGeometry>
        </mxCell>
        <mxCell id="K4JKcgcU3BRSNvJfxW2r-148" value="" style="endArrow=none;html=1;rounded=0;fontSize=12;startSize=8;endSize=8;curved=1;entryX=1;entryY=0.25;entryDx=0;entryDy=0;exitX=0;exitY=0;exitDx=0;exitDy=0;" edge="1" parent="1" source="K4JKcgcU3BRSNvJfxW2r-111" target="K4JKcgcU3BRSNvJfxW2r-134">
          <mxGeometry relative="1" as="geometry">
            <mxPoint x="389" y="517" as="sourcePoint" />
            <mxPoint x="136" y="633" as="targetPoint" />
          </mxGeometry>
        </mxCell>
        <mxCell id="K4JKcgcU3BRSNvJfxW2r-149" value="&lt;u&gt;X&lt;/u&gt;" style="text;html=1;align=center;verticalAlign=middle;whiteSpace=wrap;rounded=0;fontSize=16;" vertex="1" parent="1">
          <mxGeometry x="76" y="500" width="60" height="30" as="geometry" />
        </mxCell>
        <mxCell id="K4JKcgcU3BRSNvJfxW2r-150" value="&lt;u style=&quot;color: rgb(0, 0, 0); font-family: Helvetica; font-size: 16px; font-style: normal; font-variant-ligatures: normal; font-variant-caps: normal; font-weight: 400; letter-spacing: normal; orphans: 2; text-align: center; text-indent: 0px; text-transform: none; widows: 2; word-spacing: 0px; -webkit-text-stroke-width: 0px; white-space: normal; background-color: rgb(255, 255, 255);&quot;&gt;X&lt;/u&gt;" style="text;whiteSpace=wrap;html=1;" vertex="1" parent="1">
          <mxGeometry x="286" y="498" width="39" height="49" as="geometry" />
        </mxCell>
        <mxCell id="K4JKcgcU3BRSNvJfxW2r-151" value="&lt;span style=&quot;color: rgb(0, 0, 0); font-family: Helvetica; font-size: 16px; font-style: normal; font-variant-ligatures: normal; font-variant-caps: normal; font-weight: 400; letter-spacing: normal; orphans: 2; text-align: center; text-indent: 0px; text-transform: none; widows: 2; word-spacing: 0px; -webkit-text-stroke-width: 0px; white-space: normal; background-color: rgb(255, 255, 255);&quot;&gt;X&lt;/span&gt;" style="text;whiteSpace=wrap;html=1;" vertex="1" parent="1">
          <mxGeometry x="-109" y="1069" width="39" height="47" as="geometry" />
        </mxCell>
        <mxCell id="K4JKcgcU3BRSNvJfxW2r-152" value="&lt;span style=&quot;color: rgb(0, 0, 0); font-family: Helvetica; font-size: 16px; font-style: normal; font-variant-ligatures: normal; font-variant-caps: normal; font-weight: 400; letter-spacing: normal; orphans: 2; text-align: center; text-indent: 0px; text-transform: none; widows: 2; word-spacing: 0px; -webkit-text-stroke-width: 0px; white-space: normal; background-color: rgb(255, 255, 255);&quot;&gt;X&lt;/span&gt;" style="text;whiteSpace=wrap;html=1;" vertex="1" parent="1">
          <mxGeometry x="-105.00207956414457" y="481.00367136101977" width="39" height="41" as="geometry" />
        </mxCell>
        <mxCell id="K4JKcgcU3BRSNvJfxW2r-153" value="&lt;span style=&quot;color: rgb(0, 0, 0); font-family: Helvetica; font-size: 16px; font-style: normal; font-variant-ligatures: normal; font-variant-caps: normal; font-weight: 400; letter-spacing: normal; orphans: 2; text-align: center; text-indent: 0px; text-transform: none; widows: 2; word-spacing: 0px; -webkit-text-stroke-width: 0px; white-space: normal; background-color: rgb(255, 255, 255);&quot;&gt;X&lt;/span&gt;" style="text;whiteSpace=wrap;html=1;" vertex="1" parent="1">
          <mxGeometry x="549.9979204358555" y="506.00367136101977" width="39" height="41" as="geometry" />
        </mxCell>
        <mxCell id="K4JKcgcU3BRSNvJfxW2r-154" value="ALBUM" style="shape=table;startSize=30;container=1;collapsible=1;childLayout=tableLayout;fixedRows=1;rowLines=0;fontStyle=1;align=center;resizeLast=1;html=1;" vertex="1" parent="1">
          <mxGeometry x="562" y="1129" width="180" height="115" as="geometry" />
        </mxCell>
        <mxCell id="K4JKcgcU3BRSNvJfxW2r-155" value="" style="shape=tableRow;horizontal=0;startSize=0;swimlaneHead=0;swimlaneBody=0;fillColor=none;collapsible=0;dropTarget=0;points=[[0,0.5],[1,0.5]];portConstraint=eastwest;top=0;left=0;right=0;bottom=1;" vertex="1" parent="K4JKcgcU3BRSNvJfxW2r-154">
          <mxGeometry y="30" width="180" height="30" as="geometry" />
        </mxCell>
        <mxCell id="K4JKcgcU3BRSNvJfxW2r-156" value="PK" style="shape=partialRectangle;connectable=0;fillColor=none;top=0;left=0;bottom=0;right=0;fontStyle=1;overflow=hidden;whiteSpace=wrap;html=1;" vertex="1" parent="K4JKcgcU3BRSNvJfxW2r-155">
          <mxGeometry width="30" height="30" as="geometry">
            <mxRectangle width="30" height="30" as="alternateBounds" />
          </mxGeometry>
        </mxCell>
        <mxCell id="K4JKcgcU3BRSNvJfxW2r-157" value="album_id" style="shape=partialRectangle;connectable=0;fillColor=none;top=0;left=0;bottom=0;right=0;align=left;spacingLeft=6;fontStyle=5;overflow=hidden;whiteSpace=wrap;html=1;" vertex="1" parent="K4JKcgcU3BRSNvJfxW2r-155">
          <mxGeometry x="30" width="150" height="30" as="geometry">
            <mxRectangle width="150" height="30" as="alternateBounds" />
          </mxGeometry>
        </mxCell>
        <mxCell id="K4JKcgcU3BRSNvJfxW2r-169" value="" style="shape=tableRow;horizontal=0;startSize=0;swimlaneHead=0;swimlaneBody=0;fillColor=none;collapsible=0;dropTarget=0;points=[[0,0.5],[1,0.5]];portConstraint=eastwest;top=0;left=0;right=0;bottom=0;" vertex="1" parent="K4JKcgcU3BRSNvJfxW2r-154">
          <mxGeometry y="60" width="180" height="30" as="geometry" />
        </mxCell>
        <mxCell id="K4JKcgcU3BRSNvJfxW2r-170" value="FK" style="shape=partialRectangle;connectable=0;fillColor=none;top=0;left=0;bottom=0;right=0;fontStyle=0;overflow=hidden;whiteSpace=wrap;html=1;" vertex="1" parent="K4JKcgcU3BRSNvJfxW2r-169">
          <mxGeometry width="30" height="30" as="geometry">
            <mxRectangle width="30" height="30" as="alternateBounds" />
          </mxGeometry>
        </mxCell>
        <mxCell id="K4JKcgcU3BRSNvJfxW2r-171" value="track_id" style="shape=partialRectangle;connectable=0;fillColor=none;top=0;left=0;bottom=0;right=0;align=left;spacingLeft=6;fontStyle=0;overflow=hidden;whiteSpace=wrap;html=1;" vertex="1" parent="K4JKcgcU3BRSNvJfxW2r-169">
          <mxGeometry x="30" width="150" height="30" as="geometry">
            <mxRectangle width="150" height="30" as="alternateBounds" />
          </mxGeometry>
        </mxCell>
        <mxCell id="bH2ALgS7BTgwzx0gBejt-2" value="" style="shape=tableRow;horizontal=0;startSize=0;swimlaneHead=0;swimlaneBody=0;fillColor=none;collapsible=0;dropTarget=0;points=[[0,0.5],[1,0.5]];portConstraint=eastwest;top=0;left=0;right=0;bottom=0;" vertex="1" parent="K4JKcgcU3BRSNvJfxW2r-154">
          <mxGeometry y="90" width="180" height="25" as="geometry" />
        </mxCell>
        <mxCell id="bH2ALgS7BTgwzx0gBejt-3" value="" style="shape=partialRectangle;connectable=0;fillColor=none;top=0;left=0;bottom=0;right=0;fontStyle=0;overflow=hidden;whiteSpace=wrap;html=1;" vertex="1" parent="bH2ALgS7BTgwzx0gBejt-2">
          <mxGeometry width="30" height="25" as="geometry">
            <mxRectangle width="30" height="25" as="alternateBounds" />
          </mxGeometry>
        </mxCell>
        <mxCell id="bH2ALgS7BTgwzx0gBejt-4" value="genre" style="shape=partialRectangle;connectable=0;fillColor=none;top=0;left=0;bottom=0;right=0;align=left;spacingLeft=6;fontStyle=0;overflow=hidden;whiteSpace=wrap;html=1;" vertex="1" parent="bH2ALgS7BTgwzx0gBejt-2">
          <mxGeometry x="30" width="150" height="25" as="geometry">
            <mxRectangle width="150" height="25" as="alternateBounds" />
          </mxGeometry>
        </mxCell>
        <mxCell id="K4JKcgcU3BRSNvJfxW2r-174" value="" style="endArrow=none;html=1;rounded=0;fontSize=12;startSize=8;endSize=8;curved=1;exitX=1.018;exitY=-0.051;exitDx=0;exitDy=0;exitPerimeter=0;entryX=-0.004;entryY=-0.118;entryDx=0;entryDy=0;entryPerimeter=0;" edge="1" parent="1" source="K4JKcgcU3BRSNvJfxW2r-51" target="K4JKcgcU3BRSNvJfxW2r-169">
          <mxGeometry relative="1" as="geometry">
            <mxPoint x="59" y="1138" as="sourcePoint" />
            <mxPoint x="219" y="1138" as="targetPoint" />
          </mxGeometry>
        </mxCell>
        <mxCell id="K4JKcgcU3BRSNvJfxW2r-175" value="" style="shape=table;startSize=0;container=1;collapsible=1;childLayout=tableLayout;fixedRows=1;rowLines=0;fontStyle=0;align=center;resizeLast=1;strokeColor=none;fillColor=none;collapsible=0;whiteSpace=wrap;html=1;" vertex="1" parent="1">
          <mxGeometry x="64" y="1115" width="180" height="30" as="geometry" />
        </mxCell>
        <mxCell id="K4JKcgcU3BRSNvJfxW2r-176" value="" style="shape=tableRow;horizontal=0;startSize=0;swimlaneHead=0;swimlaneBody=0;fillColor=none;collapsible=0;dropTarget=0;points=[[0,0.5],[1,0.5]];portConstraint=eastwest;top=0;left=0;right=0;bottom=0;" vertex="1" parent="K4JKcgcU3BRSNvJfxW2r-175">
          <mxGeometry width="180" height="30" as="geometry" />
        </mxCell>
        <mxCell id="K4JKcgcU3BRSNvJfxW2r-177" value="" style="shape=partialRectangle;connectable=0;fillColor=none;top=0;left=0;bottom=0;right=0;editable=1;overflow=hidden;" vertex="1" parent="K4JKcgcU3BRSNvJfxW2r-176">
          <mxGeometry width="30" height="30" as="geometry">
            <mxRectangle width="30" height="30" as="alternateBounds" />
          </mxGeometry>
        </mxCell>
        <mxCell id="K4JKcgcU3BRSNvJfxW2r-178" value="" style="shape=partialRectangle;connectable=0;fillColor=none;top=0;left=0;bottom=0;right=0;align=left;spacingLeft=6;overflow=hidden;" vertex="1" parent="K4JKcgcU3BRSNvJfxW2r-176">
          <mxGeometry x="30" width="150" height="30" as="geometry">
            <mxRectangle width="150" height="30" as="alternateBounds" />
          </mxGeometry>
        </mxCell>
        <mxCell id="K4JKcgcU3BRSNvJfxW2r-179" value="X" style="text;html=1;align=center;verticalAlign=middle;whiteSpace=wrap;rounded=0;fontSize=16;" vertex="1" parent="1">
          <mxGeometry x="526" y="1171" width="60" height="30" as="geometry" />
        </mxCell>
        <mxCell id="K4JKcgcU3BRSNvJfxW2r-182" value="PODCAST" style="shape=table;startSize=30;container=1;collapsible=1;childLayout=tableLayout;fixedRows=1;rowLines=0;fontStyle=1;align=center;resizeLast=1;html=1;" vertex="1" parent="1">
          <mxGeometry x="562" y="1313" width="180" height="150" as="geometry" />
        </mxCell>
        <mxCell id="K4JKcgcU3BRSNvJfxW2r-183" value="" style="shape=tableRow;horizontal=0;startSize=0;swimlaneHead=0;swimlaneBody=0;fillColor=none;collapsible=0;dropTarget=0;points=[[0,0.5],[1,0.5]];portConstraint=eastwest;top=0;left=0;right=0;bottom=1;" vertex="1" parent="K4JKcgcU3BRSNvJfxW2r-182">
          <mxGeometry y="30" width="180" height="30" as="geometry" />
        </mxCell>
        <mxCell id="K4JKcgcU3BRSNvJfxW2r-184" value="PK" style="shape=partialRectangle;connectable=0;fillColor=none;top=0;left=0;bottom=0;right=0;fontStyle=1;overflow=hidden;whiteSpace=wrap;html=1;" vertex="1" parent="K4JKcgcU3BRSNvJfxW2r-183">
          <mxGeometry width="30.176456227022015" height="30" as="geometry">
            <mxRectangle width="30.176456227022015" height="30" as="alternateBounds" />
          </mxGeometry>
        </mxCell>
        <mxCell id="K4JKcgcU3BRSNvJfxW2r-185" value="podcast_id" style="shape=partialRectangle;connectable=0;fillColor=none;top=0;left=0;bottom=0;right=0;align=left;spacingLeft=6;fontStyle=5;overflow=hidden;whiteSpace=wrap;html=1;" vertex="1" parent="K4JKcgcU3BRSNvJfxW2r-183">
          <mxGeometry x="30.176456227022015" width="149.82354377297798" height="30" as="geometry">
            <mxRectangle width="149.82354377297798" height="30" as="alternateBounds" />
          </mxGeometry>
        </mxCell>
        <mxCell id="K4JKcgcU3BRSNvJfxW2r-196" value="" style="shape=tableRow;horizontal=0;startSize=0;swimlaneHead=0;swimlaneBody=0;fillColor=none;collapsible=0;dropTarget=0;points=[[0,0.5],[1,0.5]];portConstraint=eastwest;top=0;left=0;right=0;bottom=0;" vertex="1" parent="K4JKcgcU3BRSNvJfxW2r-182">
          <mxGeometry y="60" width="180" height="30" as="geometry" />
        </mxCell>
        <mxCell id="K4JKcgcU3BRSNvJfxW2r-197" value="FK" style="shape=partialRectangle;connectable=0;fillColor=none;top=0;left=0;bottom=0;right=0;fontStyle=0;overflow=hidden;whiteSpace=wrap;html=1;" vertex="1" parent="K4JKcgcU3BRSNvJfxW2r-196">
          <mxGeometry width="30.176456227022015" height="30" as="geometry">
            <mxRectangle width="30.176456227022015" height="30" as="alternateBounds" />
          </mxGeometry>
        </mxCell>
        <mxCell id="K4JKcgcU3BRSNvJfxW2r-198" value="track_id" style="shape=partialRectangle;connectable=0;fillColor=none;top=0;left=0;bottom=0;right=0;align=left;spacingLeft=6;fontStyle=0;overflow=hidden;whiteSpace=wrap;html=1;" vertex="1" parent="K4JKcgcU3BRSNvJfxW2r-196">
          <mxGeometry x="30.176456227022015" width="149.82354377297798" height="30" as="geometry">
            <mxRectangle width="149.82354377297798" height="30" as="alternateBounds" />
          </mxGeometry>
        </mxCell>
        <mxCell id="K4JKcgcU3BRSNvJfxW2r-192" value="" style="shape=tableRow;horizontal=0;startSize=0;swimlaneHead=0;swimlaneBody=0;fillColor=none;collapsible=0;dropTarget=0;points=[[0,0.5],[1,0.5]];portConstraint=eastwest;top=0;left=0;right=0;bottom=0;" vertex="1" parent="K4JKcgcU3BRSNvJfxW2r-182">
          <mxGeometry y="90" width="180" height="30" as="geometry" />
        </mxCell>
        <mxCell id="K4JKcgcU3BRSNvJfxW2r-193" value="" style="shape=partialRectangle;connectable=0;fillColor=none;top=0;left=0;bottom=0;right=0;editable=1;overflow=hidden;whiteSpace=wrap;html=1;" vertex="1" parent="K4JKcgcU3BRSNvJfxW2r-192">
          <mxGeometry width="30.176456227022015" height="30" as="geometry">
            <mxRectangle width="30.176456227022015" height="30" as="alternateBounds" />
          </mxGeometry>
        </mxCell>
        <mxCell id="K4JKcgcU3BRSNvJfxW2r-194" value="topic" style="shape=partialRectangle;connectable=0;fillColor=none;top=0;left=0;bottom=0;right=0;align=left;spacingLeft=6;overflow=hidden;whiteSpace=wrap;html=1;" vertex="1" parent="K4JKcgcU3BRSNvJfxW2r-192">
          <mxGeometry x="30.176456227022015" width="149.82354377297798" height="30" as="geometry">
            <mxRectangle width="149.82354377297798" height="30" as="alternateBounds" />
          </mxGeometry>
        </mxCell>
        <mxCell id="K4JKcgcU3BRSNvJfxW2r-200" value="" style="shape=tableRow;horizontal=0;startSize=0;swimlaneHead=0;swimlaneBody=0;fillColor=none;collapsible=0;dropTarget=0;points=[[0,0.5],[1,0.5]];portConstraint=eastwest;top=0;left=0;right=0;bottom=0;" vertex="1" parent="K4JKcgcU3BRSNvJfxW2r-182">
          <mxGeometry y="120" width="180" height="30" as="geometry" />
        </mxCell>
        <mxCell id="K4JKcgcU3BRSNvJfxW2r-201" value="" style="shape=partialRectangle;connectable=0;fillColor=none;top=0;left=0;bottom=0;right=0;editable=1;overflow=hidden;" vertex="1" parent="K4JKcgcU3BRSNvJfxW2r-200">
          <mxGeometry width="30.176456227022015" height="30" as="geometry">
            <mxRectangle width="30.176456227022015" height="30" as="alternateBounds" />
          </mxGeometry>
        </mxCell>
        <mxCell id="K4JKcgcU3BRSNvJfxW2r-202" value="description" style="shape=partialRectangle;connectable=0;fillColor=none;top=0;left=0;bottom=0;right=0;align=left;spacingLeft=6;overflow=hidden;" vertex="1" parent="K4JKcgcU3BRSNvJfxW2r-200">
          <mxGeometry x="30.176456227022015" width="149.82354377297798" height="30" as="geometry">
            <mxRectangle width="149.82354377297798" height="30" as="alternateBounds" />
          </mxGeometry>
        </mxCell>
        <mxCell id="K4JKcgcU3BRSNvJfxW2r-203" value="" style="endArrow=none;html=1;rounded=0;fontSize=12;startSize=8;endSize=8;curved=1;exitX=1;exitY=0.5;exitDx=0;exitDy=0;entryX=0;entryY=0.5;entryDx=0;entryDy=0;" edge="1" parent="1" source="K4JKcgcU3BRSNvJfxW2r-51" target="K4JKcgcU3BRSNvJfxW2r-196">
          <mxGeometry relative="1" as="geometry">
            <mxPoint x="409" y="1274" as="sourcePoint" />
            <mxPoint x="569" y="1274" as="targetPoint" />
          </mxGeometry>
        </mxCell>
        <mxCell id="K4JKcgcU3BRSNvJfxW2r-204" value="X" style="text;html=1;align=center;verticalAlign=middle;whiteSpace=wrap;rounded=0;fontSize=16;" vertex="1" parent="1">
          <mxGeometry x="529" y="1373" width="60" height="30" as="geometry" />
        </mxCell>
        <mxCell id="K4JKcgcU3BRSNvJfxW2r-205" value="SONG" style="shape=table;startSize=31;container=1;collapsible=1;childLayout=tableLayout;fixedRows=1;rowLines=0;fontStyle=1;align=center;resizeLast=1;html=1;" vertex="1" parent="1">
          <mxGeometry x="184" y="842" width="180" height="211" as="geometry" />
        </mxCell>
        <mxCell id="K4JKcgcU3BRSNvJfxW2r-206" value="" style="shape=tableRow;horizontal=0;startSize=0;swimlaneHead=0;swimlaneBody=0;fillColor=none;collapsible=0;dropTarget=0;points=[[0,0.5],[1,0.5]];portConstraint=eastwest;top=0;left=0;right=0;bottom=1;" vertex="1" parent="K4JKcgcU3BRSNvJfxW2r-205">
          <mxGeometry y="31" width="180" height="30" as="geometry" />
        </mxCell>
        <mxCell id="K4JKcgcU3BRSNvJfxW2r-207" value="PK" style="shape=partialRectangle;connectable=0;fillColor=none;top=0;left=0;bottom=0;right=0;fontStyle=1;overflow=hidden;whiteSpace=wrap;html=1;" vertex="1" parent="K4JKcgcU3BRSNvJfxW2r-206">
          <mxGeometry width="30" height="30" as="geometry">
            <mxRectangle width="30" height="30" as="alternateBounds" />
          </mxGeometry>
        </mxCell>
        <mxCell id="K4JKcgcU3BRSNvJfxW2r-208" value="song_id" style="shape=partialRectangle;connectable=0;fillColor=none;top=0;left=0;bottom=0;right=0;align=left;spacingLeft=6;fontStyle=5;overflow=hidden;whiteSpace=wrap;html=1;" vertex="1" parent="K4JKcgcU3BRSNvJfxW2r-206">
          <mxGeometry x="30" width="150" height="30" as="geometry">
            <mxRectangle width="150" height="30" as="alternateBounds" />
          </mxGeometry>
        </mxCell>
        <mxCell id="K4JKcgcU3BRSNvJfxW2r-223" value="" style="shape=tableRow;horizontal=0;startSize=0;swimlaneHead=0;swimlaneBody=0;fillColor=none;collapsible=0;dropTarget=0;points=[[0,0.5],[1,0.5]];portConstraint=eastwest;top=0;left=0;right=0;bottom=0;" vertex="1" parent="K4JKcgcU3BRSNvJfxW2r-205">
          <mxGeometry y="61" width="180" height="30" as="geometry" />
        </mxCell>
        <mxCell id="K4JKcgcU3BRSNvJfxW2r-224" value="FK" style="shape=partialRectangle;connectable=0;fillColor=none;top=0;left=0;bottom=0;right=0;fontStyle=0;overflow=hidden;whiteSpace=wrap;html=1;" vertex="1" parent="K4JKcgcU3BRSNvJfxW2r-223">
          <mxGeometry width="30" height="30" as="geometry">
            <mxRectangle width="30" height="30" as="alternateBounds" />
          </mxGeometry>
        </mxCell>
        <mxCell id="K4JKcgcU3BRSNvJfxW2r-225" value="album_id" style="shape=partialRectangle;connectable=0;fillColor=none;top=0;left=0;bottom=0;right=0;align=left;spacingLeft=6;fontStyle=0;overflow=hidden;whiteSpace=wrap;html=1;" vertex="1" parent="K4JKcgcU3BRSNvJfxW2r-223">
          <mxGeometry x="30" width="150" height="30" as="geometry">
            <mxRectangle width="150" height="30" as="alternateBounds" />
          </mxGeometry>
        </mxCell>
        <mxCell id="K4JKcgcU3BRSNvJfxW2r-209" value="" style="shape=tableRow;horizontal=0;startSize=0;swimlaneHead=0;swimlaneBody=0;fillColor=none;collapsible=0;dropTarget=0;points=[[0,0.5],[1,0.5]];portConstraint=eastwest;top=0;left=0;right=0;bottom=0;" vertex="1" parent="K4JKcgcU3BRSNvJfxW2r-205">
          <mxGeometry y="91" width="180" height="30" as="geometry" />
        </mxCell>
        <mxCell id="K4JKcgcU3BRSNvJfxW2r-210" value="" style="shape=partialRectangle;connectable=0;fillColor=none;top=0;left=0;bottom=0;right=0;editable=1;overflow=hidden;whiteSpace=wrap;html=1;" vertex="1" parent="K4JKcgcU3BRSNvJfxW2r-209">
          <mxGeometry width="30" height="30" as="geometry">
            <mxRectangle width="30" height="30" as="alternateBounds" />
          </mxGeometry>
        </mxCell>
        <mxCell id="K4JKcgcU3BRSNvJfxW2r-211" value="title" style="shape=partialRectangle;connectable=0;fillColor=none;top=0;left=0;bottom=0;right=0;align=left;spacingLeft=6;overflow=hidden;whiteSpace=wrap;html=1;" vertex="1" parent="K4JKcgcU3BRSNvJfxW2r-209">
          <mxGeometry x="30" width="150" height="30" as="geometry">
            <mxRectangle width="150" height="30" as="alternateBounds" />
          </mxGeometry>
        </mxCell>
        <mxCell id="K4JKcgcU3BRSNvJfxW2r-212" value="" style="shape=tableRow;horizontal=0;startSize=0;swimlaneHead=0;swimlaneBody=0;fillColor=none;collapsible=0;dropTarget=0;points=[[0,0.5],[1,0.5]];portConstraint=eastwest;top=0;left=0;right=0;bottom=0;" vertex="1" parent="K4JKcgcU3BRSNvJfxW2r-205">
          <mxGeometry y="121" width="180" height="30" as="geometry" />
        </mxCell>
        <mxCell id="K4JKcgcU3BRSNvJfxW2r-213" value="" style="shape=partialRectangle;connectable=0;fillColor=none;top=0;left=0;bottom=0;right=0;editable=1;overflow=hidden;whiteSpace=wrap;html=1;" vertex="1" parent="K4JKcgcU3BRSNvJfxW2r-212">
          <mxGeometry width="30" height="30" as="geometry">
            <mxRectangle width="30" height="30" as="alternateBounds" />
          </mxGeometry>
        </mxCell>
        <mxCell id="K4JKcgcU3BRSNvJfxW2r-214" value="duration" style="shape=partialRectangle;connectable=0;fillColor=none;top=0;left=0;bottom=0;right=0;align=left;spacingLeft=6;overflow=hidden;whiteSpace=wrap;html=1;" vertex="1" parent="K4JKcgcU3BRSNvJfxW2r-212">
          <mxGeometry x="30" width="150" height="30" as="geometry">
            <mxRectangle width="150" height="30" as="alternateBounds" />
          </mxGeometry>
        </mxCell>
        <mxCell id="K4JKcgcU3BRSNvJfxW2r-227" value="" style="shape=tableRow;horizontal=0;startSize=0;swimlaneHead=0;swimlaneBody=0;fillColor=none;collapsible=0;dropTarget=0;points=[[0,0.5],[1,0.5]];portConstraint=eastwest;top=0;left=0;right=0;bottom=0;" vertex="1" parent="K4JKcgcU3BRSNvJfxW2r-205">
          <mxGeometry y="151" width="180" height="30" as="geometry" />
        </mxCell>
        <mxCell id="K4JKcgcU3BRSNvJfxW2r-228" value="" style="shape=partialRectangle;connectable=0;fillColor=none;top=0;left=0;bottom=0;right=0;editable=1;overflow=hidden;" vertex="1" parent="K4JKcgcU3BRSNvJfxW2r-227">
          <mxGeometry width="30" height="30" as="geometry">
            <mxRectangle width="30" height="30" as="alternateBounds" />
          </mxGeometry>
        </mxCell>
        <mxCell id="K4JKcgcU3BRSNvJfxW2r-229" value="plays" style="shape=partialRectangle;connectable=0;fillColor=none;top=0;left=0;bottom=0;right=0;align=left;spacingLeft=6;overflow=hidden;" vertex="1" parent="K4JKcgcU3BRSNvJfxW2r-227">
          <mxGeometry x="30" width="150" height="30" as="geometry">
            <mxRectangle width="150" height="30" as="alternateBounds" />
          </mxGeometry>
        </mxCell>
        <mxCell id="K4JKcgcU3BRSNvJfxW2r-215" value="" style="shape=tableRow;horizontal=0;startSize=0;swimlaneHead=0;swimlaneBody=0;fillColor=none;collapsible=0;dropTarget=0;points=[[0,0.5],[1,0.5]];portConstraint=eastwest;top=0;left=0;right=0;bottom=0;" vertex="1" parent="K4JKcgcU3BRSNvJfxW2r-205">
          <mxGeometry y="181" width="180" height="30" as="geometry" />
        </mxCell>
        <mxCell id="K4JKcgcU3BRSNvJfxW2r-216" value="" style="shape=partialRectangle;connectable=0;fillColor=none;top=0;left=0;bottom=0;right=0;editable=1;overflow=hidden;whiteSpace=wrap;html=1;" vertex="1" parent="K4JKcgcU3BRSNvJfxW2r-215">
          <mxGeometry width="30" height="30" as="geometry">
            <mxRectangle width="30" height="30" as="alternateBounds" />
          </mxGeometry>
        </mxCell>
        <mxCell id="K4JKcgcU3BRSNvJfxW2r-217" value="likes" style="shape=partialRectangle;connectable=0;fillColor=none;top=0;left=0;bottom=0;right=0;align=left;spacingLeft=6;overflow=hidden;whiteSpace=wrap;html=1;" vertex="1" parent="K4JKcgcU3BRSNvJfxW2r-215">
          <mxGeometry x="30" width="150" height="30" as="geometry">
            <mxRectangle width="150" height="30" as="alternateBounds" />
          </mxGeometry>
        </mxCell>
        <mxCell id="K4JKcgcU3BRSNvJfxW2r-230" value="" style="endArrow=none;html=1;rounded=0;fontSize=12;startSize=8;endSize=8;curved=1;exitX=1.024;exitY=0.104;exitDx=0;exitDy=0;exitPerimeter=0;entryX=0.5;entryY=0;entryDx=0;entryDy=0;" edge="1" parent="1" source="K4JKcgcU3BRSNvJfxW2r-209" target="K4JKcgcU3BRSNvJfxW2r-154">
          <mxGeometry relative="1" as="geometry">
            <mxPoint x="603" y="841" as="sourcePoint" />
            <mxPoint x="763" y="841" as="targetPoint" />
          </mxGeometry>
        </mxCell>
        <mxCell id="K4JKcgcU3BRSNvJfxW2r-232" value="LISTENER_SAVES_ALBUM" style="shape=table;startSize=30;container=1;collapsible=1;childLayout=tableLayout;fixedRows=1;rowLines=0;fontStyle=1;align=center;resizeLast=1;html=1;" vertex="1" parent="1">
          <mxGeometry x="562" y="803" width="180" height="65.235315659467" as="geometry" />
        </mxCell>
        <mxCell id="K4JKcgcU3BRSNvJfxW2r-233" value="" style="shape=tableRow;horizontal=0;startSize=0;swimlaneHead=0;swimlaneBody=0;fillColor=none;collapsible=0;dropTarget=0;points=[[0,0.5],[1,0.5]];portConstraint=eastwest;top=0;left=0;right=0;bottom=1;" vertex="1" parent="K4JKcgcU3BRSNvJfxW2r-232">
          <mxGeometry y="30" width="180" height="35" as="geometry" />
        </mxCell>
        <mxCell id="K4JKcgcU3BRSNvJfxW2r-234" value="PK" style="shape=partialRectangle;connectable=0;fillColor=none;top=0;left=0;bottom=0;right=0;fontStyle=1;overflow=hidden;whiteSpace=wrap;html=1;" vertex="1" parent="K4JKcgcU3BRSNvJfxW2r-233">
          <mxGeometry width="29.29407456341937" height="35" as="geometry">
            <mxRectangle width="29.29407456341937" height="35" as="alternateBounds" />
          </mxGeometry>
        </mxCell>
        <mxCell id="K4JKcgcU3BRSNvJfxW2r-235" value="(listener_id, album_id)" style="shape=partialRectangle;connectable=0;fillColor=none;top=0;left=0;bottom=0;right=0;align=left;spacingLeft=6;fontStyle=5;overflow=hidden;whiteSpace=wrap;html=1;" vertex="1" parent="K4JKcgcU3BRSNvJfxW2r-233">
          <mxGeometry x="29.29407456341937" width="150.70592543658063" height="35" as="geometry">
            <mxRectangle width="150.70592543658063" height="35" as="alternateBounds" />
          </mxGeometry>
        </mxCell>
        <mxCell id="K4JKcgcU3BRSNvJfxW2r-245" value="" style="endArrow=none;html=1;rounded=0;fontSize=12;startSize=8;endSize=8;curved=1;" edge="1" parent="1" target="K4JKcgcU3BRSNvJfxW2r-232">
          <mxGeometry relative="1" as="geometry">
            <mxPoint x="652" y="648" as="sourcePoint" />
            <mxPoint x="502" y="743" as="targetPoint" />
          </mxGeometry>
        </mxCell>
        <mxCell id="K4JKcgcU3BRSNvJfxW2r-250" value="" style="endArrow=none;html=1;rounded=0;fontSize=12;startSize=8;endSize=8;curved=1;exitX=0.5;exitY=1.074;exitDx=0;exitDy=0;exitPerimeter=0;entryX=0.5;entryY=0;entryDx=0;entryDy=0;" edge="1" parent="1" source="K4JKcgcU3BRSNvJfxW2r-233" target="K4JKcgcU3BRSNvJfxW2r-154">
          <mxGeometry relative="1" as="geometry">
            <mxPoint x="656" y="951" as="sourcePoint" />
            <mxPoint x="816" y="951" as="targetPoint" />
          </mxGeometry>
        </mxCell>
        <mxCell id="K4JKcgcU3BRSNvJfxW2r-251" value="&lt;u&gt;X&lt;/u&gt;" style="text;html=1;align=center;verticalAlign=middle;whiteSpace=wrap;rounded=0;fontSize=16;" vertex="1" parent="1">
          <mxGeometry x="622" y="780" width="60" height="30" as="geometry" />
        </mxCell>
        <mxCell id="K4JKcgcU3BRSNvJfxW2r-252" value="&lt;u style=&quot;color: rgb(0, 0, 0); font-family: Helvetica; font-size: 16px; font-style: normal; font-variant-ligatures: normal; font-variant-caps: normal; font-weight: 400; letter-spacing: normal; orphans: 2; text-align: center; text-indent: 0px; text-transform: none; widows: 2; word-spacing: 0px; -webkit-text-stroke-width: 0px; white-space: normal; background-color: rgb(255, 255, 255);&quot;&gt;X&lt;/u&gt;" style="text;whiteSpace=wrap;html=1;" vertex="1" parent="1">
          <mxGeometry x="647.9970301011032" y="852.0005882352941" width="39" height="41" as="geometry" />
        </mxCell>
        <mxCell id="K4JKcgcU3BRSNvJfxW2r-253" value="&lt;span style=&quot;color: rgb(0, 0, 0); font-family: Helvetica; font-size: 16px; font-style: normal; font-variant-ligatures: normal; font-variant-caps: normal; font-weight: 400; letter-spacing: normal; orphans: 2; text-align: center; text-indent: 0px; text-transform: none; widows: 2; word-spacing: 0px; -webkit-text-stroke-width: 0px; white-space: normal; background-color: rgb(255, 255, 255);&quot;&gt;X&lt;/span&gt;" style="text;whiteSpace=wrap;html=1;" vertex="1" parent="1">
          <mxGeometry x="361.0033984375" y="921.99669921875" width="39" height="41" as="geometry" />
        </mxCell>
        <mxCell id="K4JKcgcU3BRSNvJfxW2r-254" value="ARTIST_FEAT_SONG" style="shape=table;startSize=30;container=1;collapsible=1;childLayout=tableLayout;fixedRows=1;rowLines=0;fontStyle=1;align=center;resizeLast=1;html=1;" vertex="1" parent="1">
          <mxGeometry x="53" y="714" width="180" height="60" as="geometry" />
        </mxCell>
        <mxCell id="K4JKcgcU3BRSNvJfxW2r-255" value="" style="shape=tableRow;horizontal=0;startSize=0;swimlaneHead=0;swimlaneBody=0;fillColor=none;collapsible=0;dropTarget=0;points=[[0,0.5],[1,0.5]];portConstraint=eastwest;top=0;left=0;right=0;bottom=1;" vertex="1" parent="K4JKcgcU3BRSNvJfxW2r-254">
          <mxGeometry y="30" width="180" height="30" as="geometry" />
        </mxCell>
        <mxCell id="K4JKcgcU3BRSNvJfxW2r-256" value="PK" style="shape=partialRectangle;connectable=0;fillColor=none;top=0;left=0;bottom=0;right=0;fontStyle=1;overflow=hidden;whiteSpace=wrap;html=1;" vertex="1" parent="K4JKcgcU3BRSNvJfxW2r-255">
          <mxGeometry width="30" height="30" as="geometry">
            <mxRectangle width="30" height="30" as="alternateBounds" />
          </mxGeometry>
        </mxCell>
        <mxCell id="K4JKcgcU3BRSNvJfxW2r-257" value="(artist_id, song_id)" style="shape=partialRectangle;connectable=0;fillColor=none;top=0;left=0;bottom=0;right=0;align=left;spacingLeft=6;fontStyle=5;overflow=hidden;whiteSpace=wrap;html=1;" vertex="1" parent="K4JKcgcU3BRSNvJfxW2r-255">
          <mxGeometry x="30" width="150" height="30" as="geometry">
            <mxRectangle width="150" height="30" as="alternateBounds" />
          </mxGeometry>
        </mxCell>
        <mxCell id="K4JKcgcU3BRSNvJfxW2r-267" value="" style="endArrow=none;html=1;rounded=0;fontSize=12;startSize=8;endSize=8;curved=1;exitX=1;exitY=0.5;exitDx=0;exitDy=0;entryX=0.123;entryY=0.038;entryDx=0;entryDy=0;entryPerimeter=0;" edge="1" parent="1" source="K4JKcgcU3BRSNvJfxW2r-77" target="K4JKcgcU3BRSNvJfxW2r-254">
          <mxGeometry relative="1" as="geometry">
            <mxPoint x="300.5" y="671" as="sourcePoint" />
            <mxPoint x="460.5" y="671" as="targetPoint" />
          </mxGeometry>
        </mxCell>
        <mxCell id="K4JKcgcU3BRSNvJfxW2r-268" value="" style="endArrow=none;html=1;rounded=0;fontSize=12;startSize=8;endSize=8;curved=1;exitX=0.698;exitY=0.96;exitDx=0;exitDy=0;exitPerimeter=0;entryX=0.45;entryY=0.011;entryDx=0;entryDy=0;entryPerimeter=0;" edge="1" parent="1" source="K4JKcgcU3BRSNvJfxW2r-255" target="K4JKcgcU3BRSNvJfxW2r-205">
          <mxGeometry relative="1" as="geometry">
            <mxPoint x="282" y="927" as="sourcePoint" />
            <mxPoint x="442" y="927" as="targetPoint" />
          </mxGeometry>
        </mxCell>
        <mxCell id="K4JKcgcU3BRSNvJfxW2r-269" value="LISTENER_LIKES_SONG" style="shape=table;startSize=30;container=1;collapsible=1;childLayout=tableLayout;fixedRows=1;rowLines=0;fontStyle=1;align=center;resizeLast=1;html=1;" vertex="1" parent="1">
          <mxGeometry x="346" y="714" width="180" height="60.00004069010413" as="geometry" />
        </mxCell>
        <mxCell id="K4JKcgcU3BRSNvJfxW2r-270" value="" style="shape=tableRow;horizontal=0;startSize=0;swimlaneHead=0;swimlaneBody=0;fillColor=none;collapsible=0;dropTarget=0;points=[[0,0.5],[1,0.5]];portConstraint=eastwest;top=0;left=0;right=0;bottom=1;" vertex="1" parent="K4JKcgcU3BRSNvJfxW2r-269">
          <mxGeometry y="30" width="180" height="30" as="geometry" />
        </mxCell>
        <mxCell id="K4JKcgcU3BRSNvJfxW2r-271" value="PK" style="shape=partialRectangle;connectable=0;fillColor=none;top=0;left=0;bottom=0;right=0;fontStyle=1;overflow=hidden;whiteSpace=wrap;html=1;" vertex="1" parent="K4JKcgcU3BRSNvJfxW2r-270">
          <mxGeometry width="30" height="30" as="geometry">
            <mxRectangle width="30" height="30" as="alternateBounds" />
          </mxGeometry>
        </mxCell>
        <mxCell id="K4JKcgcU3BRSNvJfxW2r-272" value="(listener_id, song_id)" style="shape=partialRectangle;connectable=0;fillColor=none;top=0;left=0;bottom=0;right=0;align=left;spacingLeft=6;fontStyle=5;overflow=hidden;whiteSpace=wrap;html=1;" vertex="1" parent="K4JKcgcU3BRSNvJfxW2r-270">
          <mxGeometry x="30" width="150" height="30" as="geometry">
            <mxRectangle width="150" height="30" as="alternateBounds" />
          </mxGeometry>
        </mxCell>
        <mxCell id="K4JKcgcU3BRSNvJfxW2r-282" value="" style="endArrow=none;html=1;rounded=0;fontSize=12;startSize=8;endSize=8;curved=1;exitX=0.5;exitY=0;exitDx=0;exitDy=0;entryX=0.297;entryY=0.96;entryDx=0;entryDy=0;entryPerimeter=0;" edge="1" parent="1" source="K4JKcgcU3BRSNvJfxW2r-205" target="K4JKcgcU3BRSNvJfxW2r-270">
          <mxGeometry relative="1" as="geometry">
            <mxPoint x="282" y="927" as="sourcePoint" />
            <mxPoint x="442" y="927" as="targetPoint" />
          </mxGeometry>
        </mxCell>
        <mxCell id="K4JKcgcU3BRSNvJfxW2r-283" value="" style="endArrow=none;html=1;rounded=0;fontSize=12;startSize=8;endSize=8;curved=1;exitX=-0.008;exitY=-0.041;exitDx=0;exitDy=0;exitPerimeter=0;entryX=0.75;entryY=0;entryDx=0;entryDy=0;" edge="1" parent="1" source="K4JKcgcU3BRSNvJfxW2r-115" target="K4JKcgcU3BRSNvJfxW2r-269">
          <mxGeometry relative="1" as="geometry">
            <mxPoint x="282" y="927" as="sourcePoint" />
            <mxPoint x="442" y="927" as="targetPoint" />
          </mxGeometry>
        </mxCell>
        <mxCell id="K4JKcgcU3BRSNvJfxW2r-284" value="&lt;u&gt;X&lt;/u&gt;" style="text;html=1;align=center;verticalAlign=middle;whiteSpace=wrap;rounded=0;fontSize=16;" vertex="1" parent="1">
          <mxGeometry x="374" y="759" width="60" height="30" as="geometry" />
        </mxCell>
        <mxCell id="K4JKcgcU3BRSNvJfxW2r-285" value="&lt;u style=&quot;color: rgb(0, 0, 0); font-family: Helvetica; font-size: 16px; font-style: normal; font-variant-ligatures: normal; font-variant-caps: normal; font-weight: 400; letter-spacing: normal; orphans: 2; text-align: center; text-indent: 0px; text-transform: none; widows: 2; word-spacing: 0px; -webkit-text-stroke-width: 0px; white-space: normal; background-color: rgb(255, 255, 255);&quot;&gt;X&lt;/u&gt;" style="text;whiteSpace=wrap;html=1;" vertex="1" parent="1">
          <mxGeometry x="475.00006510416654" y="694.0033658854168" width="39" height="41" as="geometry" />
        </mxCell>
        <mxCell id="K4JKcgcU3BRSNvJfxW2r-286" value="&lt;u style=&quot;color: rgb(0, 0, 0); font-family: Helvetica; font-size: 16px; font-style: normal; font-variant-ligatures: normal; font-variant-caps: normal; font-weight: 400; letter-spacing: normal; orphans: 2; text-align: center; text-indent: 0px; text-transform: none; widows: 2; word-spacing: 0px; -webkit-text-stroke-width: 0px; white-space: normal; background-color: rgb(255, 255, 255);&quot;&gt;X&lt;/u&gt;" style="text;whiteSpace=wrap;html=1;" vertex="1" parent="1">
          <mxGeometry x="173" y="755.23" width="39" height="37.53" as="geometry" />
        </mxCell>
        <mxCell id="K4JKcgcU3BRSNvJfxW2r-287" value="&lt;u style=&quot;color: rgb(0, 0, 0); font-family: Helvetica; font-size: 16px; font-style: normal; font-variant-ligatures: normal; font-variant-caps: normal; font-weight: 400; letter-spacing: normal; orphans: 2; text-align: center; text-indent: 0px; text-transform: none; widows: 2; word-spacing: 0px; -webkit-text-stroke-width: 0px; white-space: normal; background-color: rgb(255, 255, 255);&quot;&gt;X&lt;/u&gt;" style="text;whiteSpace=wrap;html=1;" vertex="1" parent="1">
          <mxGeometry x="66.99673177083349" y="694.0000325520832" width="39" height="41" as="geometry" />
        </mxCell>
        <mxCell id="K4JKcgcU3BRSNvJfxW2r-289" value="LISTENER_FOLLOW_PODCAST" style="shape=table;startSize=30;container=1;collapsible=1;childLayout=tableLayout;fixedRows=1;rowLines=0;fontStyle=1;align=center;resizeLast=1;html=1;" vertex="1" parent="1">
          <mxGeometry x="990" y="940" width="180" height="60" as="geometry" />
        </mxCell>
        <mxCell id="K4JKcgcU3BRSNvJfxW2r-290" value="" style="shape=tableRow;horizontal=0;startSize=0;swimlaneHead=0;swimlaneBody=0;fillColor=none;collapsible=0;dropTarget=0;points=[[0,0.5],[1,0.5]];portConstraint=eastwest;top=0;left=0;right=0;bottom=1;" vertex="1" parent="K4JKcgcU3BRSNvJfxW2r-289">
          <mxGeometry y="30" width="180" height="30" as="geometry" />
        </mxCell>
        <mxCell id="K4JKcgcU3BRSNvJfxW2r-291" value="PK" style="shape=partialRectangle;connectable=0;fillColor=none;top=0;left=0;bottom=0;right=0;fontStyle=1;overflow=hidden;whiteSpace=wrap;html=1;" vertex="1" parent="K4JKcgcU3BRSNvJfxW2r-290">
          <mxGeometry width="30" height="30" as="geometry">
            <mxRectangle width="30" height="30" as="alternateBounds" />
          </mxGeometry>
        </mxCell>
        <mxCell id="K4JKcgcU3BRSNvJfxW2r-292" value="(listener_id, podcast_id)" style="shape=partialRectangle;connectable=0;fillColor=none;top=0;left=0;bottom=0;right=0;align=left;spacingLeft=6;fontStyle=5;overflow=hidden;whiteSpace=wrap;html=1;" vertex="1" parent="K4JKcgcU3BRSNvJfxW2r-290">
          <mxGeometry x="30" width="150" height="30" as="geometry">
            <mxRectangle width="150" height="30" as="alternateBounds" />
          </mxGeometry>
        </mxCell>
        <mxCell id="K4JKcgcU3BRSNvJfxW2r-302" value="" style="endArrow=none;html=1;rounded=0;fontSize=12;startSize=8;endSize=8;curved=1;entryX=0.482;entryY=1.128;entryDx=0;entryDy=0;entryPerimeter=0;" edge="1" parent="1" source="K4JKcgcU3BRSNvJfxW2r-182" target="K4JKcgcU3BRSNvJfxW2r-290">
          <mxGeometry relative="1" as="geometry">
            <mxPoint x="741" y="1063" as="sourcePoint" />
            <mxPoint x="901" y="1063" as="targetPoint" />
          </mxGeometry>
        </mxCell>
        <mxCell id="K4JKcgcU3BRSNvJfxW2r-303" value="" style="endArrow=none;html=1;rounded=0;fontSize=12;startSize=8;endSize=8;curved=1;exitX=1;exitY=0.5;exitDx=0;exitDy=0;entryX=0.5;entryY=0;entryDx=0;entryDy=0;" edge="1" parent="1" source="K4JKcgcU3BRSNvJfxW2r-125" target="K4JKcgcU3BRSNvJfxW2r-289">
          <mxGeometry relative="1" as="geometry">
            <mxPoint x="741" y="923" as="sourcePoint" />
            <mxPoint x="901" y="923" as="targetPoint" />
          </mxGeometry>
        </mxCell>
        <mxCell id="K4JKcgcU3BRSNvJfxW2r-304" value="&lt;u style=&quot;color: rgb(0, 0, 0); font-family: Helvetica; font-size: 16px; font-style: normal; font-variant-ligatures: normal; font-variant-caps: normal; font-weight: 400; letter-spacing: normal; orphans: 2; text-align: center; text-indent: 0px; text-transform: none; widows: 2; word-spacing: 0px; -webkit-text-stroke-width: 0px; white-space: normal; background-color: rgb(255, 255, 255);&quot;&gt;X&lt;/u&gt;" style="text;whiteSpace=wrap;html=1;" vertex="1" parent="1">
          <mxGeometry x="1068.9969606370191" y="918.0046341646633" width="39" height="41" as="geometry" />
        </mxCell>
        <mxCell id="K4JKcgcU3BRSNvJfxW2r-305" value="&lt;u style=&quot;color: rgb(0, 0, 0); font-family: Helvetica; font-size: 16px; font-style: normal; font-variant-ligatures: normal; font-variant-caps: normal; font-weight: 400; letter-spacing: normal; orphans: 2; text-align: center; text-indent: 0px; text-transform: none; widows: 2; word-spacing: 0px; -webkit-text-stroke-width: 0px; white-space: normal; background-color: rgb(255, 255, 255);&quot;&gt;X&lt;/u&gt;" style="text;whiteSpace=wrap;html=1;" vertex="1" parent="1">
          <mxGeometry x="1072.0000375600962" y="985.9992495492788" width="39" height="41" as="geometry" />
        </mxCell>
        <mxCell id="K4JKcgcU3BRSNvJfxW2r-306" value="EPISODE" style="shape=table;startSize=30;container=1;collapsible=1;childLayout=tableLayout;fixedRows=1;rowLines=0;fontStyle=1;align=center;resizeLast=1;html=1;" vertex="1" parent="1">
          <mxGeometry x="1090" y="1177" width="180" height="272" as="geometry" />
        </mxCell>
        <mxCell id="K4JKcgcU3BRSNvJfxW2r-307" value="" style="shape=tableRow;horizontal=0;startSize=0;swimlaneHead=0;swimlaneBody=0;fillColor=none;collapsible=0;dropTarget=0;points=[[0,0.5],[1,0.5]];portConstraint=eastwest;top=0;left=0;right=0;bottom=1;" vertex="1" parent="K4JKcgcU3BRSNvJfxW2r-306">
          <mxGeometry y="30" width="180" height="30" as="geometry" />
        </mxCell>
        <mxCell id="K4JKcgcU3BRSNvJfxW2r-308" value="PK" style="shape=partialRectangle;connectable=0;fillColor=none;top=0;left=0;bottom=0;right=0;fontStyle=1;overflow=hidden;whiteSpace=wrap;html=1;" vertex="1" parent="K4JKcgcU3BRSNvJfxW2r-307">
          <mxGeometry width="33.1875" height="30" as="geometry">
            <mxRectangle width="33.1875" height="30" as="alternateBounds" />
          </mxGeometry>
        </mxCell>
        <mxCell id="K4JKcgcU3BRSNvJfxW2r-309" value="episode_id" style="shape=partialRectangle;connectable=0;fillColor=none;top=0;left=0;bottom=0;right=0;align=left;spacingLeft=6;fontStyle=5;overflow=hidden;whiteSpace=wrap;html=1;" vertex="1" parent="K4JKcgcU3BRSNvJfxW2r-307">
          <mxGeometry x="33.1875" width="146.8125" height="30" as="geometry">
            <mxRectangle width="146.8125" height="30" as="alternateBounds" />
          </mxGeometry>
        </mxCell>
        <mxCell id="K4JKcgcU3BRSNvJfxW2r-320" value="" style="shape=tableRow;horizontal=0;startSize=0;swimlaneHead=0;swimlaneBody=0;fillColor=none;collapsible=0;dropTarget=0;points=[[0,0.5],[1,0.5]];portConstraint=eastwest;top=0;left=0;right=0;bottom=0;" vertex="1" parent="K4JKcgcU3BRSNvJfxW2r-306">
          <mxGeometry y="60" width="180" height="30" as="geometry" />
        </mxCell>
        <mxCell id="K4JKcgcU3BRSNvJfxW2r-321" value="FK" style="shape=partialRectangle;connectable=0;fillColor=none;top=0;left=0;bottom=0;right=0;fontStyle=0;overflow=hidden;whiteSpace=wrap;html=1;" vertex="1" parent="K4JKcgcU3BRSNvJfxW2r-320">
          <mxGeometry width="33.1875" height="30" as="geometry">
            <mxRectangle width="33.1875" height="30" as="alternateBounds" />
          </mxGeometry>
        </mxCell>
        <mxCell id="K4JKcgcU3BRSNvJfxW2r-322" value="podcast_id" style="shape=partialRectangle;connectable=0;fillColor=none;top=0;left=0;bottom=0;right=0;align=left;spacingLeft=6;fontStyle=0;overflow=hidden;whiteSpace=wrap;html=1;" vertex="1" parent="K4JKcgcU3BRSNvJfxW2r-320">
          <mxGeometry x="33.1875" width="146.8125" height="30" as="geometry">
            <mxRectangle width="146.8125" height="30" as="alternateBounds" />
          </mxGeometry>
        </mxCell>
        <mxCell id="K4JKcgcU3BRSNvJfxW2r-345" value="" style="shape=tableRow;horizontal=0;startSize=0;swimlaneHead=0;swimlaneBody=0;fillColor=none;collapsible=0;dropTarget=0;points=[[0,0.5],[1,0.5]];portConstraint=eastwest;top=0;left=0;right=0;bottom=0;" vertex="1" parent="K4JKcgcU3BRSNvJfxW2r-306">
          <mxGeometry y="90" width="180" height="30" as="geometry" />
        </mxCell>
        <mxCell id="K4JKcgcU3BRSNvJfxW2r-346" value="" style="shape=partialRectangle;connectable=0;fillColor=none;top=0;left=0;bottom=0;right=0;editable=1;overflow=hidden;" vertex="1" parent="K4JKcgcU3BRSNvJfxW2r-345">
          <mxGeometry width="33.1875" height="30" as="geometry">
            <mxRectangle width="33.1875" height="30" as="alternateBounds" />
          </mxGeometry>
        </mxCell>
        <mxCell id="K4JKcgcU3BRSNvJfxW2r-347" value="title" style="shape=partialRectangle;connectable=0;fillColor=none;top=0;left=0;bottom=0;right=0;align=left;spacingLeft=6;overflow=hidden;" vertex="1" parent="K4JKcgcU3BRSNvJfxW2r-345">
          <mxGeometry x="33.1875" width="146.8125" height="30" as="geometry">
            <mxRectangle width="146.8125" height="30" as="alternateBounds" />
          </mxGeometry>
        </mxCell>
        <mxCell id="K4JKcgcU3BRSNvJfxW2r-310" value="" style="shape=tableRow;horizontal=0;startSize=0;swimlaneHead=0;swimlaneBody=0;fillColor=none;collapsible=0;dropTarget=0;points=[[0,0.5],[1,0.5]];portConstraint=eastwest;top=0;left=0;right=0;bottom=0;" vertex="1" parent="K4JKcgcU3BRSNvJfxW2r-306">
          <mxGeometry y="120" width="180" height="30" as="geometry" />
        </mxCell>
        <mxCell id="K4JKcgcU3BRSNvJfxW2r-311" value="" style="shape=partialRectangle;connectable=0;fillColor=none;top=0;left=0;bottom=0;right=0;editable=1;overflow=hidden;whiteSpace=wrap;html=1;" vertex="1" parent="K4JKcgcU3BRSNvJfxW2r-310">
          <mxGeometry width="33.1875" height="30" as="geometry">
            <mxRectangle width="33.1875" height="30" as="alternateBounds" />
          </mxGeometry>
        </mxCell>
        <mxCell id="K4JKcgcU3BRSNvJfxW2r-312" value="host" style="shape=partialRectangle;connectable=0;fillColor=none;top=0;left=0;bottom=0;right=0;align=left;spacingLeft=6;overflow=hidden;whiteSpace=wrap;html=1;" vertex="1" parent="K4JKcgcU3BRSNvJfxW2r-310">
          <mxGeometry x="33.1875" width="146.8125" height="30" as="geometry">
            <mxRectangle width="146.8125" height="30" as="alternateBounds" />
          </mxGeometry>
        </mxCell>
        <mxCell id="K4JKcgcU3BRSNvJfxW2r-313" value="" style="shape=tableRow;horizontal=0;startSize=0;swimlaneHead=0;swimlaneBody=0;fillColor=none;collapsible=0;dropTarget=0;points=[[0,0.5],[1,0.5]];portConstraint=eastwest;top=0;left=0;right=0;bottom=0;" vertex="1" parent="K4JKcgcU3BRSNvJfxW2r-306">
          <mxGeometry y="150" width="180" height="30" as="geometry" />
        </mxCell>
        <mxCell id="K4JKcgcU3BRSNvJfxW2r-314" value="" style="shape=partialRectangle;connectable=0;fillColor=none;top=0;left=0;bottom=0;right=0;editable=1;overflow=hidden;whiteSpace=wrap;html=1;" vertex="1" parent="K4JKcgcU3BRSNvJfxW2r-313">
          <mxGeometry width="33.1875" height="30" as="geometry">
            <mxRectangle width="33.1875" height="30" as="alternateBounds" />
          </mxGeometry>
        </mxCell>
        <mxCell id="K4JKcgcU3BRSNvJfxW2r-315" value="guest" style="shape=partialRectangle;connectable=0;fillColor=none;top=0;left=0;bottom=0;right=0;align=left;spacingLeft=6;overflow=hidden;whiteSpace=wrap;html=1;" vertex="1" parent="K4JKcgcU3BRSNvJfxW2r-313">
          <mxGeometry x="33.1875" width="146.8125" height="30" as="geometry">
            <mxRectangle width="146.8125" height="30" as="alternateBounds" />
          </mxGeometry>
        </mxCell>
        <mxCell id="K4JKcgcU3BRSNvJfxW2r-316" value="" style="shape=tableRow;horizontal=0;startSize=0;swimlaneHead=0;swimlaneBody=0;fillColor=none;collapsible=0;dropTarget=0;points=[[0,0.5],[1,0.5]];portConstraint=eastwest;top=0;left=0;right=0;bottom=0;" vertex="1" parent="K4JKcgcU3BRSNvJfxW2r-306">
          <mxGeometry y="180" width="180" height="30" as="geometry" />
        </mxCell>
        <mxCell id="K4JKcgcU3BRSNvJfxW2r-317" value="" style="shape=partialRectangle;connectable=0;fillColor=none;top=0;left=0;bottom=0;right=0;editable=1;overflow=hidden;whiteSpace=wrap;html=1;" vertex="1" parent="K4JKcgcU3BRSNvJfxW2r-316">
          <mxGeometry width="33.1875" height="30" as="geometry">
            <mxRectangle width="33.1875" height="30" as="alternateBounds" />
          </mxGeometry>
        </mxCell>
        <mxCell id="K4JKcgcU3BRSNvJfxW2r-318" value="duration" style="shape=partialRectangle;connectable=0;fillColor=none;top=0;left=0;bottom=0;right=0;align=left;spacingLeft=6;overflow=hidden;whiteSpace=wrap;html=1;" vertex="1" parent="K4JKcgcU3BRSNvJfxW2r-316">
          <mxGeometry x="33.1875" width="146.8125" height="30" as="geometry">
            <mxRectangle width="146.8125" height="30" as="alternateBounds" />
          </mxGeometry>
        </mxCell>
        <mxCell id="K4JKcgcU3BRSNvJfxW2r-349" value="" style="shape=tableRow;horizontal=0;startSize=0;swimlaneHead=0;swimlaneBody=0;fillColor=none;collapsible=0;dropTarget=0;points=[[0,0.5],[1,0.5]];portConstraint=eastwest;top=0;left=0;right=0;bottom=0;" vertex="1" parent="K4JKcgcU3BRSNvJfxW2r-306">
          <mxGeometry y="210" width="180" height="32" as="geometry" />
        </mxCell>
        <mxCell id="K4JKcgcU3BRSNvJfxW2r-350" value="" style="shape=partialRectangle;connectable=0;fillColor=none;top=0;left=0;bottom=0;right=0;editable=1;overflow=hidden;" vertex="1" parent="K4JKcgcU3BRSNvJfxW2r-349">
          <mxGeometry width="33.1875" height="32" as="geometry">
            <mxRectangle width="33.1875" height="32" as="alternateBounds" />
          </mxGeometry>
        </mxCell>
        <mxCell id="K4JKcgcU3BRSNvJfxW2r-351" value="likes" style="shape=partialRectangle;connectable=0;fillColor=none;top=0;left=0;bottom=0;right=0;align=left;spacingLeft=6;overflow=hidden;" vertex="1" parent="K4JKcgcU3BRSNvJfxW2r-349">
          <mxGeometry x="33.1875" width="146.8125" height="32" as="geometry">
            <mxRectangle width="146.8125" height="32" as="alternateBounds" />
          </mxGeometry>
        </mxCell>
        <mxCell id="K4JKcgcU3BRSNvJfxW2r-353" value="" style="shape=tableRow;horizontal=0;startSize=0;swimlaneHead=0;swimlaneBody=0;fillColor=none;collapsible=0;dropTarget=0;points=[[0,0.5],[1,0.5]];portConstraint=eastwest;top=0;left=0;right=0;bottom=0;" vertex="1" parent="K4JKcgcU3BRSNvJfxW2r-306">
          <mxGeometry y="242" width="180" height="30" as="geometry" />
        </mxCell>
        <mxCell id="K4JKcgcU3BRSNvJfxW2r-354" value="" style="shape=partialRectangle;connectable=0;fillColor=none;top=0;left=0;bottom=0;right=0;editable=1;overflow=hidden;" vertex="1" parent="K4JKcgcU3BRSNvJfxW2r-353">
          <mxGeometry width="33.1875" height="30" as="geometry">
            <mxRectangle width="33.1875" height="30" as="alternateBounds" />
          </mxGeometry>
        </mxCell>
        <mxCell id="K4JKcgcU3BRSNvJfxW2r-355" value="plays" style="shape=partialRectangle;connectable=0;fillColor=none;top=0;left=0;bottom=0;right=0;align=left;spacingLeft=6;overflow=hidden;" vertex="1" parent="K4JKcgcU3BRSNvJfxW2r-353">
          <mxGeometry x="33.1875" width="146.8125" height="30" as="geometry">
            <mxRectangle width="146.8125" height="30" as="alternateBounds" />
          </mxGeometry>
        </mxCell>
        <mxCell id="K4JKcgcU3BRSNvJfxW2r-356" value="" style="endArrow=none;html=1;rounded=0;fontSize=12;startSize=8;endSize=8;curved=1;exitX=1;exitY=0.5;exitDx=0;exitDy=0;" edge="1" parent="1" source="K4JKcgcU3BRSNvJfxW2r-196">
          <mxGeometry relative="1" as="geometry">
            <mxPoint x="862" y="1373" as="sourcePoint" />
            <mxPoint x="1089" y="1383" as="targetPoint" />
          </mxGeometry>
        </mxCell>
        <mxCell id="K4JKcgcU3BRSNvJfxW2r-357" value="&lt;span style=&quot;color: rgb(0, 0, 0); font-family: Helvetica; font-size: 16px; font-style: normal; font-variant-ligatures: normal; font-variant-caps: normal; font-weight: 400; letter-spacing: normal; orphans: 2; text-align: center; text-indent: 0px; text-transform: none; widows: 2; word-spacing: 0px; -webkit-text-stroke-width: 0px; white-space: normal; background-color: rgb(255, 255, 255);&quot;&gt;X&lt;/span&gt;" style="text;whiteSpace=wrap;html=1;" vertex="1" parent="1">
          <mxGeometry x="1076.9999694824219" y="1361.9999694824219" width="39" height="41" as="geometry" />
        </mxCell>
        <mxCell id="HFeMtDTQivlGilhJd5tt-14" value="AUDIT_LOG" style="shape=table;startSize=30;container=1;collapsible=1;childLayout=tableLayout;fixedRows=1;rowLines=0;fontStyle=1;align=center;resizeLast=1;html=1;" vertex="1" parent="1">
          <mxGeometry x="550" y="215" width="180" height="90" as="geometry" />
        </mxCell>
        <mxCell id="HFeMtDTQivlGilhJd5tt-15" value="" style="shape=tableRow;horizontal=0;startSize=0;swimlaneHead=0;swimlaneBody=0;fillColor=none;collapsible=0;dropTarget=0;points=[[0,0.5],[1,0.5]];portConstraint=eastwest;top=0;left=0;right=0;bottom=1;" vertex="1" parent="HFeMtDTQivlGilhJd5tt-14">
          <mxGeometry y="30" width="180" height="30" as="geometry" />
        </mxCell>
        <mxCell id="HFeMtDTQivlGilhJd5tt-16" value="PK" style="shape=partialRectangle;connectable=0;fillColor=none;top=0;left=0;bottom=0;right=0;fontStyle=1;overflow=hidden;whiteSpace=wrap;html=1;" vertex="1" parent="HFeMtDTQivlGilhJd5tt-15">
          <mxGeometry width="30" height="30" as="geometry">
            <mxRectangle width="30" height="30" as="alternateBounds" />
          </mxGeometry>
        </mxCell>
        <mxCell id="HFeMtDTQivlGilhJd5tt-17" value="(user_id, action)" style="shape=partialRectangle;connectable=0;fillColor=none;top=0;left=0;bottom=0;right=0;align=left;spacingLeft=6;fontStyle=5;overflow=hidden;whiteSpace=wrap;html=1;" vertex="1" parent="HFeMtDTQivlGilhJd5tt-15">
          <mxGeometry x="30" width="150" height="30" as="geometry">
            <mxRectangle width="150" height="30" as="alternateBounds" />
          </mxGeometry>
        </mxCell>
        <mxCell id="HFeMtDTQivlGilhJd5tt-18" value="" style="shape=tableRow;horizontal=0;startSize=0;swimlaneHead=0;swimlaneBody=0;fillColor=none;collapsible=0;dropTarget=0;points=[[0,0.5],[1,0.5]];portConstraint=eastwest;top=0;left=0;right=0;bottom=0;" vertex="1" parent="HFeMtDTQivlGilhJd5tt-14">
          <mxGeometry y="60" width="180" height="30" as="geometry" />
        </mxCell>
        <mxCell id="HFeMtDTQivlGilhJd5tt-19" value="" style="shape=partialRectangle;connectable=0;fillColor=none;top=0;left=0;bottom=0;right=0;editable=1;overflow=hidden;whiteSpace=wrap;html=1;" vertex="1" parent="HFeMtDTQivlGilhJd5tt-18">
          <mxGeometry width="30" height="30" as="geometry">
            <mxRectangle width="30" height="30" as="alternateBounds" />
          </mxGeometry>
        </mxCell>
        <mxCell id="HFeMtDTQivlGilhJd5tt-20" value="times" style="shape=partialRectangle;connectable=0;fillColor=none;top=0;left=0;bottom=0;right=0;align=left;spacingLeft=6;overflow=hidden;whiteSpace=wrap;html=1;" vertex="1" parent="HFeMtDTQivlGilhJd5tt-18">
          <mxGeometry x="30" width="150" height="30" as="geometry">
            <mxRectangle width="150" height="30" as="alternateBounds" />
          </mxGeometry>
        </mxCell>
        <mxCell id="HFeMtDTQivlGilhJd5tt-21" value="" style="endArrow=none;html=1;rounded=0;fontSize=12;startSize=8;endSize=8;curved=1;exitX=1;exitY=0.5;exitDx=0;exitDy=0;entryX=0;entryY=0.5;entryDx=0;entryDy=0;" edge="1" parent="1" source="K4JKcgcU3BRSNvJfxW2r-11" target="HFeMtDTQivlGilhJd5tt-15">
          <mxGeometry relative="1" as="geometry">
            <mxPoint x="365" y="239" as="sourcePoint" />
            <mxPoint x="525" y="239" as="targetPoint" />
          </mxGeometry>
        </mxCell>
      </root>
    </mxGraphModel>
  </diagram>
</mxfile>
